<?xml version="1.0" standalone="no"?>
<!DOCTYPE svg PUBLIC "-//W3C//DTD SVG 20010904//EN"
 "http://www.w3.org/TR/2001/REC-SVG-20010904/DTD/svg10.dtd">
<svg version="1.0" xmlns="http://www.w3.org/2000/svg"
 width="832.000000pt" height="1248.000000pt" viewBox="0 0 832.000000 1248.000000"
 preserveAspectRatio="xMidYMid meet">

<g transform="translate(0.000000,1248.000000) scale(0.100000,-0.100000)"
fill="#000000" stroke="none">
<path d="M0 11634 c0 -802 1 -846 17 -840 17 6 17 5 1 -8 -18 -13 -25 -56 -9
-56 10 0 63 39 73 55 4 5 13 11 20 11 7 1 18 2 24 3 6 0 22 11 35 24 14 12 43
30 66 41 36 16 40 21 28 33 -12 11 -18 11 -35 1 -11 -7 -20 -18 -20 -25 0 -7
-7 -13 -15 -13 -8 0 -15 -4 -15 -10 0 -5 -10 -14 -22 -20 -21 -10 -21 -10 -5
3 22 18 22 28 0 20 -10 -4 -14 -2 -10 4 10 15 184 103 191 96 3 -3 6 -2 6 4 0
12 109 70 267 142 120 55 128 57 117 39 -4 -7 -3 -8 5 -4 6 4 9 11 6 16 -4 7
65 36 207 89 18 7 38 32 65 81 74 138 168 280 181 275 7 -3 10 -1 7 4 -4 7 35
77 62 111 2 2 9 -2 14 -10 8 -12 9 -10 5 6 -18 62 677 788 725 758 8 -4 10 -3
5 4 -5 9 -261 12 -1002 12 l-994 0 0 -846z m120 -788 c0 -2 -12 -12 -27 -21
l-28 -18 19 21 c17 20 36 29 36 18z m-55 -54 c-3 -3 -11 0 -18 7 -9 10 -8 11
6 5 10 -3 15 -9 12 -12z"/>
<path d="M2000 12384 c-122 -101 -382 -358 -490 -485 -346 -407 -582 -825
-755 -1340 -77 -227 -159 -610 -185 -859 -19 -186 -30 -404 -22 -435 6 -20 9
12 10 96 5 430 111 944 292 1419 221 577 644 1157 1153 1580 76 62 137 115
137 117 0 15 -42 -13 -140 -93z"/>
<path d="M2224 12447 c-21 -18 -48 -40 -60 -48 -63 -43 -269 -226 -405 -360
-153 -151 -380 -419 -355 -419 3 0 25 26 48 57 24 31 60 75 81 98 21 22 51 58
67 80 31 44 312 321 405 400 71 60 208 171 250 202 17 12 25 23 19 23 -6 0
-28 -15 -50 -33z"/>
<path d="M3495 12468 c-50 -28 -215 -139 -215 -144 0 -4 7 -4 15 0 22 8 18 -2
-6 -15 -15 -8 -19 -8 -15 0 18 28 -24 3 -154 -94 -433 -324 -790 -709 -1034
-1114 -137 -230 -274 -526 -363 -786 -42 -125 -100 -352 -108 -425 -4 -30 -11
-66 -15 -80 -16 -45 -41 -271 -49 -459 -20 -414 22 -761 140 -1171 104 -359
311 -788 539 -1121 57 -82 222 -291 227 -286 2 2 -14 36 -36 75 -46 83 -129
278 -160 372 -31 98 -78 302 -96 420 -22 143 -31 480 -16 622 64 607 301 1175
697 1673 99 123 400 430 513 521 208 168 460 344 606 423 33 18 65 37 70 41
26 21 384 193 495 238 688 277 1306 403 2050 419 366 8 713 -18 1045 -77 117
-20 359 -60 369 -60 3 0 6 -5 6 -11 0 -11 -25 -8 -66 8 -10 4 -15 2 -11 -4 3
-5 32 -15 64 -23 96 -21 247 -62 262 -70 33 -18 -87 4 -126 23 -35 17 -46 18
-65 8 l-23 -12 23 5 c12 2 22 0 22 -5 0 -5 8 -9 18 -10 9 0 12 -3 5 -5 -7 -3
-56 6 -110 21 -192 51 -598 109 -913 130 -597 41 -1169 -9 -1738 -150 -155
-38 -171 -42 -402 -117 -348 -112 -810 -322 -1025 -468 -22 -15 -74 -49 -115
-75 -70 -46 -293 -209 -369 -272 -168 -137 -395 -374 -556 -579 -164 -209
-326 -482 -421 -709 -77 -185 -183 -536 -171 -568 2 -6 8 6 12 28 14 81 75
284 127 425 94 254 335 676 474 827 12 13 34 42 50 65 62 91 349 380 494 498
51 41 98 80 104 85 28 26 260 188 336 236 425 262 920 471 1410 594 466 118
807 163 1289 172 546 10 984 -42 1622 -192 118 -28 122 -28 115 -17 -3 5 -49
19 -102 32 -54 13 -93 25 -87 27 6 2 47 -5 91 -17 44 -11 85 -20 91 -20 6 0
10 194 11 590 l1 590 -2378 0 -2378 0 -80 -48 c-44 -26 -86 -51 -92 -55 -7 -5
-13 -6 -13 -3 0 3 35 28 77 55 42 28 73 51 68 51 -6 0 -19 -6 -30 -12z m49
-70 c-9 -24 -19 -63 -23 -88 -5 -25 -18 -92 -29 -150 -35 -178 -68 -383 -78
-479 -4 -42 -12 -69 -25 -82 -22 -22 -17 -24 14 -8 42 22 -4 -17 -73 -62 -46
-29 -58 -34 -43 -17 18 19 20 27 11 36 -9 9 -9 12 0 12 8 0 10 9 6 25 -3 14
-1 69 5 123 6 53 18 172 26 263 9 91 18 174 20 185 1 10 6 52 10 92 4 39 12
72 18 72 6 0 7 3 4 7 -8 7 150 113 170 113 1 0 -5 -19 -13 -42z m-184 -43 c0
-2 -10 -9 -22 -15 -22 -11 -22 -10 -4 4 21 17 26 19 26 11z m-125 -90 c-16
-14 -46 -34 -65 -46 l-35 -21 24 26 c14 14 28 26 33 26 5 0 18 9 30 20 12 11
27 20 32 20 6 0 -2 -11 -19 -25z m-125 -88 c-36 -32 -118 -94 -100 -75 21 22
113 98 120 98 3 0 -6 -10 -20 -23z m-120 -97 c0 -5 -5 -10 -11 -10 -5 0 -7 5
-4 10 3 6 8 10 11 10 2 0 4 -4 4 -10z m-30 -23 c0 -2 -10 -12 -22 -23 l-23
-19 19 23 c18 21 26 27 26 19z m-70 -60 c0 -2 -12 -14 -27 -28 l-28 -24 24 28
c23 25 31 32 31 24z m-392 -391 c-7 -8 -15 -12 -17 -11 -5 6 10 25 20 25 5 0
4 -6 -3 -14z m5582 -191 c38 -13 40 -14 10 -9 -19 3 -48 5 -63 5 -15 0 -25 4
-22 9 8 13 22 12 75 -5z m116 -30 c64 -17 86 -29 33 -19 -36 8 -109 32 -97 33
4 1 33 -6 64 -14z m-6319 -901 c14 -12 50 -31 81 -44 72 -30 134 -81 178 -147
l34 -52 -77 -159 -77 -160 -47 97 c-65 135 -157 280 -184 293 -23 10 -23 12
-9 52 30 87 68 168 73 155 2 -8 15 -23 28 -35z m-230 -1636 c71 -93 93 -132
93 -161 0 -28 -1 -28 -35 19 -19 27 -52 74 -72 104 l-38 55 -5 -50 -5 -50 -6
55 c-11 97 9 106 68 28z"/>
<path d="M2704 11988 l-19 -23 23 19 c21 18 27 26 19 26 -2 0 -12 -10 -23 -22z"/>
<path d="M2484 11778 l-29 -33 33 29 c30 28 37 36 29 36 -2 0 -16 -15 -33 -32z"/>
<path d="M2389 11683 l-24 -28 28 24 c25 23 32 31 24 31 -2 0 -14 -12 -28 -27z"/>
<path d="M2339 11623 c-13 -16 -12 -17 4 -4 16 13 21 21 13 21 -2 0 -10 -8
-17 -17z"/>
<path d="M1385 11602 c-42 -29 -346 -512 -345 -547 1 -5 8 4 16 20 67 127 199
336 291 463 30 39 52 72 51 72 -2 0 -8 -4 -13 -8z"/>
<path d="M2269 11543 c-13 -16 -12 -17 4 -4 16 13 21 21 13 21 -2 0 -10 -8
-17 -17z"/>
<path d="M7513 11473 c9 -2 23 -2 30 0 6 3 -1 5 -18 5 -16 0 -22 -2 -12 -5z"/>
<path d="M7638 11473 c7 -3 16 -2 19 1 4 3 -2 6 -13 5 -11 0 -14 -3 -6 -6z"/>
<path d="M7600 11455 c19 -7 42 -13 50 -13 8 0 -1 6 -20 13 -19 7 -42 13 -50
13 -8 0 1 -6 20 -13z"/>
<path d="M7733 11463 c15 -2 25 -9 22 -14 -3 -5 1 -6 9 -3 29 11 16 24 -21 23
-31 -2 -33 -3 -10 -6z"/>
<path d="M7859 11439 c-7 -4 -17 -5 -23 -2 -5 4 -6 1 -2 -6 6 -9 -2 -11 -31
-7 l-38 5 35 -8 c19 -5 65 -14 102 -20 37 -6 75 -14 84 -18 11 -4 15 -3 11 5
-7 10 -20 14 -107 28 l-45 8 35 6 c29 5 31 7 14 12 -12 3 -28 2 -35 -3z"/>
<path d="M2166 11403 c-6 -14 -5 -15 5 -6 7 7 10 15 7 18 -3 3 -9 -2 -12 -12z"/>
<path d="M6170 11385 c-85 -7 -191 -18 -235 -24 -195 -28 -356 -55 -425 -72
-87 -22 -65 -19 165 21 807 138 1729 95 2530 -119 104 -28 146 -33 94 -12
-129 52 -610 146 -979 190 -264 32 -850 40 -1150 16z"/>
<path d="M8028 11383 c6 -2 18 -2 25 0 6 3 1 5 -13 5 -14 0 -19 -2 -12 -5z"/>
<path d="M2092 11303 c-26 -38 -34 -53 -29 -53 2 0 16 18 31 40 29 45 28 56
-2 13z"/>
<path d="M5398 11263 c7 -3 16 -2 19 1 4 3 -2 6 -13 5 -11 0 -14 -3 -6 -6z"/>
<path d="M5305 11248 c-229 -58 -511 -145 -502 -154 2 -2 52 11 110 31 130 42
351 105 374 106 10 0 36 6 58 14 47 15 18 17 -40 3z"/>
<path d="M2044 11228 c-4 -7 -23 -37 -41 -65 -19 -29 -31 -53 -29 -53 3 0 20
24 39 53 47 74 49 77 43 77 -3 0 -8 -6 -12 -12z"/>
<path d="M838 11140 c-25 -10 -85 -37 -133 -59 -48 -23 -90 -41 -93 -41 -17 0
-327 -165 -457 -243 -171 -102 -161 -95 -152 -104 4 -4 20 3 35 14 27 19 131
83 224 136 137 79 607 301 616 292 3 -2 -26 -18 -64 -35 -38 -17 -71 -35 -74
-39 -3 -5 -21 -12 -40 -16 -30 -7 -32 -9 -15 -16 19 -7 19 -8 -3 -8 -15 -1
-21 -5 -16 -13 4 -7 3 -8 -5 -4 -6 4 -21 4 -32 1 -21 -7 -21 -7 -1 -21 11 -8
29 -11 39 -8 10 3 -4 -7 -30 -21 -41 -22 -54 -25 -78 -16 -33 11 -40 5 -8 -7
18 -7 10 -14 -54 -46 -44 -23 -80 -35 -88 -31 -7 5 -10 4 -6 -2 6 -9 -66 -59
-136 -96 -50 -27 -267 -170 -263 -175 3 -2 63 32 133 75 244 153 610 342 669
346 25 2 33 11 63 72 18 39 33 72 33 75 -1 11 -20 8 -64 -10z m-13 -100 c-3
-5 -12 -10 -18 -10 -7 0 -6 4 3 10 19 12 23 12 15 0z m-85 -35 c-14 -8 -32
-14 -40 -14 -8 0 -1 6 15 14 40 18 57 18 25 0z"/>
<path d="M4755 11080 c-13 -6 -15 -9 -5 -9 8 0 22 4 30 9 18 12 2 12 -25 0z"/>
<path d="M525 11051 c-3 -5 -2 -12 3 -15 5 -3 9 1 9 9 0 17 -3 19 -12 6z"/>
<path d="M4665 11050 c-11 -5 -76 -32 -145 -61 -69 -28 -188 -83 -265 -122
-77 -38 -155 -77 -172 -85 -18 -9 -33 -20 -33 -24 0 -5 60 23 133 61 131 69
332 161 456 207 36 14 67 27 70 29 7 8 -22 4 -44 -5z"/>
<path d="M1004 10989 c-14 -28 -24 -53 -22 -55 2 -2 16 21 31 51 15 30 25 55
22 55 -3 0 -16 -23 -31 -51z"/>
<path d="M427 10979 c-10 -6 -24 -8 -32 -5 -9 3 -12 0 -9 -9 5 -12 10 -12 35
1 16 8 29 17 29 19 0 7 -2 6 -23 -6z"/>
<path d="M566 10967 c-17 -12 -16 -14 13 -14 18 0 27 4 20 7 -8 6 -7 9 2 13
11 4 10 6 -2 6 -8 1 -23 -5 -33 -12z"/>
<path d="M347 10959 c-9 -6 -15 -15 -11 -20 3 -6 -4 -7 -19 -4 -27 7 -46 -9
-22 -19 20 -7 66 14 58 27 -4 6 0 8 10 4 11 -4 14 -2 10 9 -3 7 -6 14 -7 14 0
0 -9 -5 -19 -11z"/>
<path d="M801 10943 c-26 -55 -91 -227 -87 -230 3 -3 17 29 53 120 9 23 25 62
35 85 21 48 19 70 -1 25z"/>
<path d="M942 10858 c-59 -118 -149 -354 -139 -364 2 -2 9 15 16 38 12 40 105
266 137 332 8 16 12 31 11 33 -2 2 -14 -16 -25 -39z"/>
<path d="M1833 10863 c-3 -10 -8 -22 -11 -27 -3 -5 0 -6 5 -3 11 7 25 47 17
47 -3 0 -7 -8 -11 -17z"/>
<path d="M4020 10742 c-34 -16 -111 -65 -107 -69 5 -4 127 65 127 72 0 6 0 6
-20 -3z"/>
<path d="M687 10649 c-10 -28 -17 -56 -16 -63 0 -6 9 15 20 48 11 32 18 60 16
62 -2 2 -11 -19 -20 -47z"/>
<path d="M6248 10683 c7 -3 16 -2 19 1 4 3 -2 6 -13 5 -11 0 -14 -3 -6 -6z"/>
<path d="M7208 10683 c7 -3 16 -2 19 1 4 3 -2 6 -13 5 -11 0 -14 -3 -6 -6z"/>
<path d="M7288 10673 c6 -2 18 -2 25 0 6 3 1 5 -13 5 -14 0 -19 -2 -12 -5z"/>
<path d="M7373 10663 c9 -2 25 -2 35 0 9 3 1 5 -18 5 -19 0 -27 -2 -17 -5z"/>
<path d="M3804 10608 c-78 -50 -257 -181 -281 -205 -7 -6 -13 -15 -13 -19 0
-4 12 4 28 18 32 31 309 228 320 228 12 1 47 30 35 30 -5 0 -46 -23 -89 -52z"/>
<path d="M7463 10653 c9 -2 23 -2 30 0 6 3 -1 5 -18 5 -16 0 -22 -2 -12 -5z"/>
<path d="M7545 10640 c17 -4 41 -8 55 -8 22 0 22 1 -5 8 -16 4 -41 8 -55 8
-22 0 -22 -1 5 -8z"/>
<path d="M6375 10619 c-559 -34 -1173 -184 -1660 -405 -284 -129 -667 -354
-636 -373 6 -4 1 -13 -12 -20 -20 -13 -21 -13 -8 2 24 30 0 18 -82 -42 -180
-129 -453 -386 -596 -559 -347 -419 -578 -925 -658 -1442 -27 -177 -25 -517 5
-670 71 -362 181 -625 352 -845 26 -33 52 -70 59 -83 30 -56 349 -223 565
-294 203 -67 327 -89 526 -95 151 -5 190 -2 281 15 58 12 139 34 180 50 41 16
85 32 99 35 37 9 189 99 278 164 102 75 244 220 310 316 107 155 184 354 199
513 9 93 23 78 23 -23 0 -62 3 -84 10 -73 10 15 7 -157 -6 -300 -18 -206 -103
-439 -224 -620 -54 -79 -186 -237 -215 -256 -14 -9 -25 -23 -25 -30 0 -8 -3
-14 -8 -14 -4 0 -18 -10 -32 -22 -214 -194 -445 -352 -725 -498 -51 -26 -101
-53 -111 -58 -11 -5 -37 -18 -59 -27 -22 -10 -53 -24 -70 -32 -77 -39 -632
-226 -649 -219 -6 2 -1 5 11 5 12 1 24 5 27 10 3 4 -20 2 -52 -5 -123 -30
-347 -64 -513 -79 -190 -16 -217 -17 -179 -5 14 4 59 9 100 9 41 1 80 5 87 9
6 4 -30 6 -80 5 -56 -2 -84 1 -72 6 52 22 -33 29 -405 34 -256 4 -423 11 -500
21 -113 15 -295 21 -220 7 28 -5 31 -8 15 -12 -11 -3 -35 -5 -53 -5 -18 1 -32
-4 -32 -11 0 -50 -413 38 -830 177 -212 71 -343 124 -333 134 4 4 0 4 -8 1
-19 -7 -345 144 -414 191 -11 8 -23 14 -27 14 -5 0 -8 -448 -8 -995 l0 -994
33 -5 c196 -32 716 -46 997 -27 387 27 860 102 1230 198 874 224 1626 584
2180 1043 161 133 177 147 299 265 208 201 379 409 513 621 67 107 158 273
158 289 0 6 -4 3 -10 -5 -16 -25 -19 -7 -11 65 5 39 9 64 10 57 0 -7 6 -10 13
-6 8 5 10 -7 5 -44 -3 -29 -4 -52 -2 -52 8 0 68 140 105 245 52 147 84 270
111 430 28 166 31 480 6 650 -49 327 -170 603 -373 852 -24 31 -43 57 -42 59
11 10 176 -166 230 -246 112 -163 166 -285 223 -500 39 -145 46 -142 11 5 -40
165 -121 365 -187 462 -16 25 -28 47 -26 49 11 12 227 -245 315 -376 127 -189
258 -506 287 -698 4 -24 10 -41 13 -38 3 3 -1 45 -8 92 -7 48 -16 81 -20 74
-4 -7 -7 7 -6 29 0 23 -4 45 -10 49 -5 4 -11 20 -12 36 -1 16 -8 37 -16 45 -7
9 -19 34 -26 56 -49 156 -223 440 -387 632 -29 33 -53 65 -53 69 0 12 95 -91
133 -143 17 -24 32 -41 34 -39 5 5 -39 80 -49 84 -4 2 -8 9 -8 15 0 17 48 -33
76 -80 14 -24 22 -48 18 -55 -4 -7 -3 -8 5 -4 6 4 14 0 17 -8 3 -9 10 -14 14
-11 5 3 11 1 14 -4 7 -11 -13 -9 -32 3 -11 7 -11 4 -1 -12 7 -12 15 -19 18
-17 7 8 52 -62 103 -160 26 -49 48 -87 48 -84 0 14 -45 107 -86 176 -24 41
-39 71 -34 68 5 -3 35 -51 66 -106 64 -112 121 -254 159 -391 14 -51 34 -124
45 -163 11 -38 26 -102 34 -140 8 -39 24 -88 35 -108 20 -36 51 -132 73 -224
13 -59 4 -395 -15 -528 -93 -649 -395 -1283 -872 -1835 -363 -420 -726 -716
-1365 -1112 -218 -135 -771 -420 -786 -405 -2 2 24 17 59 33 34 16 64 32 65
37 2 4 10 7 18 7 8 0 14 7 14 15 0 8 5 15 11 15 5 0 7 -6 3 -12 -5 -9 -2 -8 9
1 16 13 16 14 0 27 -10 7 -23 14 -29 14 -6 0 -11 7 -11 16 0 11 7 14 20 10 18
-4 19 -3 5 10 -12 12 -20 13 -34 5 -37 -20 -234 -103 -389 -163 -331 -127
-646 -225 -965 -300 -393 -92 -891 -177 -1037 -178 -41 0 -58 -13 -30 -23 7
-3 5 -7 -8 -12 -11 -3 -27 -10 -35 -14 -27 -14 -103 -24 -96 -13 7 12 -52 22
-78 12 -15 -5 -9 -9 25 -15 l44 -8 -35 -7 -35 -7 37 -16 c21 -9 63 -18 95 -18
37 -1 3 -7 -91 -16 -81 -8 -155 -12 -163 -9 -18 7 -7 26 15 25 14 0 13 -2 -3
-9 l-20 -9 20 1 c11 0 31 4 45 8 l25 8 -25 2 c-23 2 -22 3 7 11 35 10 54 29
29 29 -8 0 -17 -4 -20 -9 -3 -5 -26 -14 -52 -20 -39 -10 -50 -9 -71 5 -14 9
-28 12 -32 8 -9 -13 -149 -16 -156 -4 -4 6 -69 10 -166 10 -132 0 -159 -2
-159 -14 0 -10 13 -16 38 -19 l37 -4 -37 -1 -38 -2 0 -865 0 -865 1658 0 1659
0 169 86 c159 81 209 109 474 261 313 180 661 419 970 667 195 156 615 557
782 746 213 241 428 536 595 815 69 114 207 385 263 515 17 41 40 93 51 115
31 68 147 410 179 529 61 231 111 495 130 696 64 658 -40 1390 -278 1960 -59
142 -117 271 -139 310 -11 19 -37 67 -58 105 -40 72 -57 99 -178 280 -140 209
-464 560 -498 539 -7 -4 -9 -3 -6 3 9 15 -141 138 -279 229 -227 150 -533 288
-769 348 -202 51 -274 60 -510 60 -184 1 -248 -3 -320 -17 -111 -22 -285 -72
-343 -97 l-43 -19 -10 23 c-16 35 10 68 105 130 138 91 380 216 417 216 10 0
20 -11 23 -24 3 -14 13 -26 22 -28 9 -2 -40 -25 -108 -52 -67 -27 -170 -72
-228 -99 -96 -45 -115 -52 -160 -56 -13 -1 -13 -2 0 -11 12 -8 13 -13 2 -30
-12 -19 -11 -20 15 -14 15 4 71 24 123 44 178 69 366 96 604 86 89 -3 181 -8
206 -11 l45 -5 -37 10 c-55 14 -238 30 -363 31 l-110 1 85 19 c97 21 139 23
65 3 l-50 -13 60 4 c33 3 168 7 300 11 211 5 259 3 396 -15 190 -25 221 -25
79 0 -138 24 -356 37 -560 34 -119 -3 -155 -1 -130 6 19 6 154 14 300 18 l265
9 -285 -3 c-239 -2 -302 -6 -390 -23 -151 -29 -192 -40 -313 -79 -60 -19 -111
-32 -114 -29 -6 6 187 66 302 95 184 45 288 55 565 55 236 0 287 -3 465 -28
123 -17 201 -24 203 -18 10 30 218 -24 472 -123 152 -60 159 -63 325 -153 473
-256 929 -684 1266 -1188 52 -77 103 -158 114 -180 10 -21 24 -46 31 -54 28
-35 114 -215 109 -227 -2 -8 0 -11 5 -8 13 8 73 -123 63 -137 -3 -6 -1 -8 4
-5 22 14 163 -355 246 -643 46 -158 81 -318 67 -303 -5 4 -16 46 -25 93 -16
80 -40 140 -57 140 -4 0 -11 -7 -16 -16 -8 -14 -10 -14 -14 3 -4 16 0 19 24
18 26 -2 29 1 23 19 -4 12 -9 31 -12 44 -6 24 -23 30 -23 8 0 -7 -6 -26 -14
-41 -9 -17 -12 -36 -7 -49 4 -11 16 -61 26 -109 12 -59 21 -84 27 -75 6 9 7 6
3 -8 -3 -12 8 -100 24 -195 16 -96 32 -217 36 -269 4 -56 13 -105 22 -119 8
-13 11 -21 6 -18 -6 4 -8 -98 -5 -261 6 -359 -15 -625 -78 -1007 -62 -370
-198 -835 -347 -1180 -14 -33 -31 -73 -38 -90 -7 -16 -27 -60 -43 -98 -17 -37
-28 -67 -24 -67 4 0 2 -4 -4 -8 -6 -4 -39 -63 -74 -132 -34 -69 -66 -129 -70
-135 -4 -5 -29 -50 -55 -100 -26 -49 -61 -109 -76 -133 -31 -45 -35 -57 -19
-47 6 3 7 -1 3 -10 -4 -12 -8 -14 -13 -4 -6 8 -15 -1 -29 -27 -12 -21 -29 -50
-39 -64 -9 -13 -11 -21 -4 -16 17 10 15 -9 -3 -45 -9 -16 -13 -34 -10 -39 3
-5 -1 -7 -9 -4 -12 5 -11 11 6 42 19 33 19 35 2 17 -46 -49 -54 -63 -48 -79 3
-9 10 -16 15 -16 4 0 6 7 3 15 -5 11 -2 13 10 9 12 -5 14 -10 6 -19 -8 -10 -7
-16 6 -23 16 -9 16 -12 -8 -40 -24 -29 -25 -29 -37 -10 -10 16 -9 23 4 38 10
11 12 20 6 24 -5 4 -14 -2 -20 -11 -6 -10 -11 -13 -11 -7 0 5 5 15 12 22 6 6
9 14 6 18 -4 3 -13 -7 -21 -23 -9 -15 -47 -70 -86 -122 -74 -98 -78 -106 -61
-116 6 -4 7 1 3 11 -4 12 -3 15 5 10 7 -4 12 -1 12 8 0 9 4 16 8 16 4 0 13 14
19 31 7 17 17 28 22 24 7 -3 8 0 5 9 -4 11 0 16 10 16 9 0 16 6 16 14 0 18 36
63 44 55 4 -3 -1 -23 -10 -44 -9 -23 -12 -41 -6 -47 6 -6 5 -19 -2 -34 -14
-30 -29 -32 -21 -1 4 15 3 18 -3 8 -8 -11 -10 -11 -15 0 -4 11 -6 11 -6 1 -1
-7 6 -23 15 -37 18 -27 13 -39 -43 -114 -19 -25 -44 -59 -56 -75 -55 -73 -143
-183 -164 -205 -13 -14 -32 -38 -41 -53 -9 -15 -19 -28 -23 -28 -4 0 -40 -39
-82 -87 -67 -79 -324 -338 -467 -471 l-55 -52 1143 0 1142 0 0 1470 c0 1016
-3 1470 -11 1470 -5 0 -8 -4 -5 -9 6 -9 -18 -23 -44 -26 -8 -1 -35 -16 -60
-32 -180 -119 -356 -220 -367 -209 -10 10 10 26 95 78 124 74 303 198 288 198
-4 0 -26 -13 -49 -29 -59 -41 -260 -167 -296 -186 -17 -8 -31 -11 -31 -6 0 6
11 45 24 88 71 228 101 345 146 578 16 79 24 103 42 115 12 8 74 52 137 97 64
46 120 84 125 86 5 2 7 9 5 16 -4 10 -15 5 -39 -16 -19 -16 -60 -47 -91 -69
-31 -21 -77 -54 -103 -72 -46 -33 -71 -37 -47 -8 7 8 10 20 7 25 -4 5 -1 13 5
17 6 3 9 18 6 33 -4 21 1 31 28 51 19 14 79 58 134 99 63 47 101 82 101 93 0
25 -4 24 -68 -25 -31 -24 -85 -62 -119 -85 l-62 -41 3 57 c7 113 18 192 27
192 5 0 9 -4 9 -9 0 -6 18 -39 41 -75 l41 -65 26 17 c15 9 44 30 65 46 l37 29
-1 1821 -1 1821 -88 80 c-48 44 -88 82 -89 85 0 3 11 11 26 18 23 10 30 10 45
-5 12 -13 15 -23 8 -33 -8 -13 -11 -12 -24 5 -8 11 -17 17 -20 14 -3 -3 7 -18
24 -32 18 -16 30 -22 31 -15 1 7 2 20 3 28 1 8 -3 24 -8 35 -9 20 -9 20 12 1
12 -10 19 -23 16 -27 -3 -5 1 -6 9 -3 20 7 47 -38 41 -67 -5 -19 -4 -21 5 -9
19 27 12 45 -42 98 -50 49 -78 67 -60 40 4 -7 -5 -5 -20 5 -15 9 -27 13 -27 7
0 -5 4 -10 10 -10 17 0 -1 -28 -22 -33 -15 -4 -35 6 -67 33 -219 188 -413 321
-622 427 -38 19 -69 39 -69 45 0 5 -5 8 -12 6 -7 -3 -28 6 -47 19 -19 13 -46
26 -60 30 -14 3 -62 24 -106 47 -127 65 -462 198 -629 249 -42 13 -62 23 -52
27 9 3 -60 26 -152 52 -769 215 -1614 183 -2273 -87 -350 -143 -660 -351 -848
-568 -29 -34 -64 -74 -77 -89 -57 -66 -158 -225 -204 -320 -64 -135 -107 -264
-127 -386 -14 -88 -18 -99 -34 -95 -11 3 -19 6 -19 7 0 2 -7 47 -15 102 -21
144 -6 509 29 679 26 125 63 268 76 294 5 9 20 54 34 100 15 46 42 117 61 157
19 41 35 79 35 85 0 7 3 10 6 7 3 -3 -9 -48 -26 -99 -35 -106 -48 -179 -32
-179 14 0 25 17 15 23 -5 2 -2 2 5 1 16 -4 79 52 88 79 7 21 7 21 14 3 5 -17
14 -10 59 45 222 270 560 537 906 715 558 287 1167 419 1850 401 679 -18 1397
-199 2046 -516 199 -98 400 -211 394 -221 -3 -4 -17 -10 -32 -13 -22 -4 -63
12 -178 70 -147 74 -476 223 -525 238 -14 4 -29 11 -35 15 -31 23 -474 168
-640 209 -234 58 -370 84 -610 115 -658 86 -1346 8 -1926 -219 -214 -84 -467
-213 -600 -306 -245 -171 -438 -347 -590 -539 -50 -63 -170 -246 -197 -300
-21 -41 -21 -43 -3 -20 11 14 21 29 21 34 0 14 52 87 57 82 3 -3 -11 -32 -31
-66 -20 -33 -36 -64 -36 -68 0 -4 -9 -18 -20 -32 -13 -17 -20 -20 -20 -10 0
12 -3 11 -11 -2 -6 -11 -7 -24 -1 -34 8 -14 11 -12 24 12 14 28 28 52 79 139
34 58 147 207 236 310 42 50 66 81 53 70 -14 -11 -29 -26 -33 -33 -5 -7 -32
-38 -60 -69 -29 -30 -63 -71 -77 -91 -14 -19 -37 -49 -52 -66 -16 -17 -28 -36
-28 -43 0 -7 -5 -13 -11 -13 -6 0 0 18 12 40 122 204 397 481 671 675 119 84
424 244 573 301 122 46 289 104 325 113 19 5 80 21 135 36 265 70 525 104 860
112 367 8 553 -7 945 -77 287 -52 801 -209 982 -301 10 -5 22 -9 27 -9 5 0 44
-16 85 -35 42 -19 88 -35 104 -36 15 0 21 -3 15 -6 -7 -2 67 -45 164 -94 98
-49 182 -94 187 -99 6 -6 15 -10 21 -10 5 0 -5 10 -23 21 -18 12 -31 23 -29
26 6 5 167 -74 188 -93 8 -8 18 -14 22 -14 3 0 5 372 4 827 l-2 827 -78 24
c-43 13 -77 25 -75 28 2 2 39 -7 81 -20 42 -13 77 -20 77 -16 0 4 -26 15 -57
24 -32 10 -83 26 -113 36 -95 33 -162 51 -245 65 -44 8 -125 23 -180 34 -410
79 -886 108 -1350 80z m198 -16 c-13 -2 -33 -2 -45 0 -13 2 -3 4 22 4 25 0 35
-2 23 -4z m-243 -14 c-36 -5 -130 -15 -210 -24 -136 -14 -177 -21 -382 -61
-46 -9 -114 -22 -153 -30 -38 -7 -104 -22 -145 -33 -79 -22 -97 -25 -87 -15
15 15 371 94 560 125 142 23 367 47 437 46 38 0 35 -1 -20 -8z m97 5 c-3 -3
-12 -4 -19 -1 -8 3 -5 6 6 6 11 1 17 -2 13 -5z m-176 -43 c-16 -11 -17 -9 57
-102 24 -30 53 -67 65 -82 12 -16 32 -41 45 -55 52 -60 84 -100 127 -157 25
-33 61 -81 81 -107 19 -26 35 -51 35 -55 1 -4 5 -14 11 -20 8 -10 -6 -13 -68
-13 -44 0 -110 3 -147 7 -66 6 -69 7 -87 42 -45 88 -183 256 -309 376 -41 38
-85 82 -99 98 -14 15 -32 28 -41 28 -27 2 60 19 169 33 131 17 180 19 161 7z
m1326 -7 c-3 -3 -12 -4 -19 -1 -8 3 -5 6 6 6 11 1 17 -2 13 -5z m70 -10 c-3
-3 -12 -4 -19 -1 -8 3 -5 6 6 6 11 1 17 -2 13 -5z m56 -11 c-7 -2 -19 -2 -25
0 -7 3 -2 5 12 5 14 0 19 -2 13 -5z m-2383 -113 c-40 -13 -193 -58 -220 -65
-19 -5 -21 -4 -9 4 22 14 209 69 234 69 16 0 15 -1 -5 -8z m-295 -90 c-3 -5
-11 -10 -16 -10 -6 0 -7 5 -4 10 3 6 11 10 16 10 6 0 7 -4 4 -10z m-86 -34
c-11 -10 -182 -77 -191 -74 -5 2 33 20 84 40 84 34 119 45 107 34z m-209 -81
c0 -8 -62 -37 -67 -31 -3 3 10 12 28 20 42 18 39 17 39 11z m-82 -40 c-9 -9
-182 -94 -186 -91 -4 4 170 95 182 96 5 0 7 -2 4 -5z m-198 -100 c0 -2 -13
-11 -30 -20 -38 -19 -40 -11 -2 9 31 17 32 18 32 11z m-70 -40 c0 -2 -10 -9
-22 -15 -22 -11 -22 -10 -4 4 21 17 26 19 26 11z m-75 -50 c-16 -14 -34 -25
-39 -25 -12 0 -3 9 31 31 40 25 43 22 8 -6z m84 -61 c24 -62 40 -88 111 -183
30 -41 55 -79 55 -85 1 -12 -131 -85 -156 -86 -12 0 -18 20 -28 91 -6 50 -16
110 -21 133 -38 161 -39 173 -16 184 26 12 30 9 55 -54z m-174 4 c-7 -17 -89
-64 -83 -48 2 6 7 11 11 10 4 0 22 10 38 24 34 29 41 32 34 14z m-215 -148 c0
-8 -71 -62 -144 -109 -28 -18 27 31 89 79 57 44 55 43 55 30z m-203 -171 c-23
-20 -44 -35 -46 -33 -7 7 61 71 75 71 7 0 -6 -17 -29 -38z m-139 -119 c-29
-28 -75 -74 -101 -103 -27 -29 -44 -43 -39 -32 11 21 175 185 186 185 3 0 -18
-23 -46 -50z m-198 -204 c0 -3 -19 -26 -42 -53 -23 -26 -61 -74 -85 -107 -24
-32 -43 -53 -43 -48 0 11 156 212 165 212 3 0 5 -2 5 -4z m-239 -328 c-50 -86
-64 -121 -85 -213 -26 -111 -63 -239 -65 -220 -1 6 8 43 19 83 11 40 18 77 15
83 -4 5 -1 9 5 9 7 0 10 6 7 13 -2 6 2 35 9 62 26 97 14 87 -51 -42 -26 -51
-48 -93 -50 -93 -12 0 64 147 121 234 97 149 129 195 132 191 2 -2 -24 -50
-57 -107z m4700 -35 c13 -17 13 -17 -6 -3 -11 8 -22 16 -24 17 -2 2 0 3 6 3 6
0 17 -8 24 -17z m123 -55 c32 -16 56 -31 53 -34 -2 -3 -40 14 -83 36 -44 22
-68 38 -54 34 14 -4 51 -20 84 -36z m-2349 -108 c42 -7 36 -8 -31 -3 -67 4
-101 0 -205 -25 -68 -17 -164 -38 -214 -47 -357 -64 -459 -85 -630 -129 -149
-40 -282 -66 -290 -58 -13 14 -1 21 48 27 28 4 106 20 172 35 253 60 348 80
605 130 146 29 272 56 280 61 17 9 -27 11 -245 9 -262 -2 -526 -29 -675 -70
-116 -32 -117 -32 -100 -21 47 30 282 73 520 97 147 14 674 10 765 -6z m2599
5 c11 -8 18 -17 15 -19 -2 -2 -15 4 -28 15 -27 22 -15 26 13 4z m-2459 -24
c34 -7 35 -9 10 -9 -16 0 -43 4 -60 8 -42 11 -1 11 50 1z m78 -18 c-7 -2 -19
-2 -25 0 -7 3 -2 5 12 5 14 0 19 -2 13 -5z m60 -10 c-7 -2 -19 -2 -25 0 -7 3
-2 5 12 5 14 0 19 -2 13 -5z m-1584 -56 c-6 -4 -342 -117 -364 -123 -11 -3 -3
4 18 16 34 19 270 101 322 112 19 4 33 1 24 -5z m-1383 -68 c-9 -19 -15 -29
-16 -22 0 18 20 66 25 61 3 -3 -1 -20 -9 -39z m1334 -44 c0 -8 -4 -15 -10 -15
-5 0 -10 7 -10 15 0 8 5 15 10 15 6 0 10 -7 10 -15z m-415 -56 c-77 -37 -106
-47 -91 -31 9 9 148 70 161 70 6 0 -26 -17 -70 -39z m-858 -1 c-3 -8 -6 -5 -6
6 -1 11 2 17 5 13 3 -3 4 -12 1 -19z m753 -43 c0 -2 -15 -12 -32 -20 l-33 -16
25 20 c24 20 40 26 40 16z m-70 -40 c0 -2 -10 -9 -22 -15 -22 -11 -22 -10 -4
4 21 17 26 19 26 11z m293 -62 c-7 -2 -19 -2 -25 0 -7 3 -2 5 12 5 14 0 19 -2
13 -5z m-56 -9 c-3 -3 -12 -4 -19 -1 -8 3 -5 6 6 6 11 1 17 -2 13 -5z m-247
-54 c-8 -5 -19 -10 -25 -10 -5 0 -3 5 5 10 8 5 20 10 25 10 6 0 3 -5 -5 -10z
m171 -62 c1 -52 9 -133 13 -145 6 -14 -39 -29 -118 -39 -35 -5 -46 -4 -47 7 0
8 -1 41 -1 74 -1 33 -5 62 -9 65 -17 12 12 33 62 45 82 20 99 19 100 -7z
m3823 -243 c32 -22 66 -44 75 -50 35 -21 96 -73 91 -79 -11 -10 -50 6 -43 18
4 7 1 7 -7 -1 -9 -8 -19 -9 -30 -3 -23 13 -527 6 -603 -8 -32 -6 -63 -15 -70
-20 -7 -5 -23 -8 -36 -6 -21 4 -22 2 -10 -12 13 -16 12 -16 -8 -6 -12 7 -60
36 -107 66 l-86 53 73 20 c95 27 211 41 442 54 105 6 198 12 208 12 9 1 17 5
17 9 0 11 29 -3 94 -47z m-2419 -23 c-3 -3 -11 0 -18 7 -9 10 -8 11 6 5 10 -3
15 -9 12 -12z m-1420 -10 c-5 -4 -10 -37 -10 -75 0 -57 -3 -68 -19 -73 -10 -3
-23 -1 -28 4 -14 14 -17 104 -5 120 6 8 5 12 -4 13 -18 1 30 17 56 18 11 0 16
-3 10 -7z m1506 -162 c57 -44 120 -94 139 -111 l35 -30 -50 33 c-27 17 -83 59
-125 93 -41 33 -86 68 -100 78 -13 9 -20 17 -14 17 6 0 57 -36 115 -80z m264
-100 c4 6 24 -3 50 -21 44 -32 177 -162 214 -210 19 -24 23 -58 9 -69 -4 -3 8
-41 27 -85 45 -102 44 -115 -1 -41 -51 85 -139 200 -214 281 -92 97 -140 161
-113 146 15 -7 24 -8 28 -1z m-134 -37 c13 -16 12 -17 -3 -4 -10 7 -18 15 -18
17 0 8 8 3 21 -13z m87 -18 c-3 -3 -9 2 -12 12 -6 14 -5 15 5 6 7 -7 10 -15 7
-18z m192 -196 c7 -13 -5 -4 -26 21 -21 25 -65 74 -98 110 -39 43 -30 35 26
-21 47 -47 91 -96 98 -110z m-360 87 c0 -2 7 -20 16 -41 8 -20 10 -34 5 -30
-6 3 -11 1 -11 -6 0 -21 -50 -120 -58 -115 -5 3 -18 27 -31 54 l-24 50 44 45
c40 40 59 54 59 43z m560 -113 c0 -13 -22 5 -54 45 l-39 47 46 -45 c26 -24 47
-45 47 -47z m20 -21 c0 -4 15 -25 34 -47 19 -22 33 -42 30 -44 -2 -2 -5 -2 -7
0 -2 2 -20 25 -41 52 -21 26 -33 47 -27 47 6 0 11 -3 11 -8z m-794 -112 c24 0
46 -5 49 -10 4 -6 9 -8 13 -6 4 2 15 -2 26 -9 27 -20 12 -52 -35 -74 l-39 -19
-24 31 c-40 54 -73 128 -44 99 7 -7 31 -12 54 -12z m894 -10 c0 -5 -2 -10 -4
-10 -3 0 -8 5 -11 10 -3 6 -1 10 4 10 6 0 11 -4 11 -10z m132 -372 c45 -47 85
-78 97 -78 41 0 86 -33 110 -82 13 -26 22 -50 20 -52 -6 -6 -148 91 -188 127
-36 34 -169 197 -215 262 -16 23 -1 11 35 -30 35 -38 98 -105 141 -147z m-133
-78 c-2 -12 -38 77 -38 95 0 11 9 -5 19 -35 11 -30 20 -57 19 -60z m-519 -501
c0 -16 -4 -29 -9 -29 -5 0 -12 -12 -15 -26 -12 -46 -14 -21 -4 38 10 59 28 70
28 17z m617 -21 c-3 -8 -6 -5 -6 6 -1 11 2 17 5 13 3 -3 4 -12 1 -19z m-647
-96 c0 -15 -2 -15 -10 -2 -13 20 -13 33 0 25 6 -3 10 -14 10 -23z m-26 -49
c-4 -23 -3 -25 6 -13 9 12 10 9 5 -15 -4 -16 -11 -54 -16 -84 -4 -29 -15 -63
-23 -75 -8 -13 -20 -42 -27 -65 -7 -23 -21 -47 -32 -53 -14 -7 -17 -7 -13 1 4
7 -1 11 -13 11 -11 0 -22 -8 -24 -17 -3 -10 -3 6 0 36 3 30 14 70 26 90 12 20
42 75 67 124 24 48 46 87 47 87 2 0 1 -12 -3 -27z m2352 -510 c-10 -10 -19 5
-10 18 6 11 8 11 12 0 2 -7 1 -15 -2 -18z m1 -85 c-3 -8 -6 -5 -6 6 -1 11 2
17 5 13 3 -3 4 -12 1 -19z m29 -39 c-9 -19 -15 -29 -16 -22 0 15 22 64 27 60
2 -2 -3 -19 -11 -38z m44 -159 c0 -11 -4 -20 -9 -20 -5 0 -7 9 -4 20 3 11 7
20 9 20 2 0 4 -9 4 -20z m37 -32 c-3 -8 -6 -5 -6 6 -1 11 2 17 5 13 3 -3 4
-12 1 -19z m-40 -80 c-3 -7 -5 -2 -5 12 0 14 2 19 5 13 2 -7 2 -19 0 -25z m60
-17 c-4 -16 -2 -31 2 -33 8 -3 33 -178 45 -318 4 -44 3 -58 -3 -45 -5 11 -10
43 -10 71 -1 28 -4 67 -8 85 -7 33 -7 33 -15 9 -5 -18 -6 -14 -2 13 6 47 -5
147 -17 147 -5 0 -7 -35 -4 -77 4 -74 4 -75 -4 -19 -5 35 -15 64 -25 71 -9 7
-16 16 -16 20 0 4 6 2 14 -4 18 -15 29 13 35 92 0 9 4 17 7 17 4 0 4 -13 1
-29z m-47 -21 c0 -5 -4 -10 -10 -10 -5 0 -10 5 -10 10 0 6 5 10 10 10 6 0 10
-4 10 -10z m-1071 -242 c0 -57 -4 -95 -8 -84 -6 15 -21 3 -91 -75 -90 -98
-184 -194 -215 -219 -17 -14 -18 -13 -12 23 4 25 21 54 51 88 46 51 178 234
232 321 16 27 32 48 37 48 4 0 7 -46 6 -102z m1104 -8 c-7 -28 -13 -25 -13 6
0 14 4 23 9 20 5 -3 7 -15 4 -26z m32 -50 c3 -5 1 -10 -4 -10 -6 0 -11 -9 -11
-21 0 -11 -4 -17 -10 -14 -16 10 -12 55 4 55 8 0 18 -4 21 -10z m-1138 -72
c-3 -8 -6 -5 -6 6 -1 11 2 17 5 13 3 -3 4 -12 1 -19z m-3161 -76 c20 -18 36
-42 56 -79 6 -13 18 -23 25 -23 8 0 11 -4 8 -10 -3 -6 4 -10 17 -10 35 -1 -52
-38 -141 -61 -75 -19 -109 -24 -99 -13 7 6 -15 79 -39 132 -8 19 -13 35 -11
37 4 5 139 43 154 44 6 1 20 -7 30 -17z m4281 -39 c-3 -10 -5 -4 -5 12 0 17 2
24 5 18 2 -7 2 -21 0 -30z m30 15 c-3 -8 -6 -5 -6 6 -1 11 2 17 5 13 3 -3 4
-12 1 -19z m-4604 -15 c-7 -2 -19 -2 -25 0 -7 3 -2 5 12 5 14 0 19 -2 13 -5z
m-46 -9 c-3 -3 -12 -4 -19 -1 -8 3 -5 6 6 6 11 1 17 -2 13 -5z m-624 -11 c-7
-2 -19 -2 -25 0 -7 3 -2 5 12 5 14 0 19 -2 13 -5z m574 1 c-3 -3 -12 -4 -19
-1 -8 3 -5 6 6 6 11 1 17 -2 13 -5z m4726 -45 c-6 -6 -7 3 -4 23 4 28 6 29 9
9 2 -13 0 -27 -5 -32z m-4770 34 c-7 -2 -19 -2 -25 0 -7 3 -2 5 12 5 14 0 19
-2 13 -5z m-1313 -59 c35 -6 35 -7 38 -61 1 -30 9 -70 17 -89 l14 -34 -29 0
c-16 0 -51 5 -77 10 l-48 11 -18 70 c-9 39 -15 74 -12 79 3 5 -1 11 -7 13 -18
8 80 8 122 1z m4907 -96 c-3 -7 -5 -2 -5 12 0 14 2 19 5 13 2 -7 2 -19 0 -25z
m-3147 -18 c-12 -8 -10 -10 10 -11 22 0 23 -1 5 -8 -19 -8 -19 -8 0 -19 17
-10 18 -11 3 -12 -9 0 -24 9 -32 21 -8 12 -19 18 -25 14 -6 -3 -11 -2 -11 4 0
9 21 18 50 20 13 1 13 0 0 -9z m0 -81 c0 -5 -4 -9 -10 -9 -5 0 -10 7 -10 16 0
8 5 12 10 9 6 -3 10 -10 10 -16z m4327 -51 c-3 -7 -5 -2 -5 12 0 14 2 19 5 13
2 -7 2 -19 0 -25z m-5950 -14 c-3 -3 -12 -4 -19 -1 -8 3 -5 6 6 6 11 1 17 -2
13 -5z m4740 -76 c-3 -7 -5 -2 -5 12 0 14 2 19 5 13 2 -7 2 -19 0 -25z m-4700
-34 c-3 -3 -12 -4 -19 -1 -8 3 -5 6 6 6 11 1 17 -2 13 -5z m1886 -26 c9 -7 13
-18 9 -24 -14 -20 -193 -134 -211 -134 -17 0 0 64 21 79 40 29 143 89 154 90
5 1 18 -5 27 -11z m-2507 -812 c104 -51 198 -86 233 -86 43 0 15 -11 -53 -21
-63 -8 -72 -7 -179 30 -61 21 -136 50 -165 64 -29 14 -67 29 -85 33 l-32 8 30
7 c17 4 60 7 96 8 59 1 75 -4 155 -43z m4754 -61 c30 -3 92 -13 138 -21 45 -9
100 -16 122 -16 26 0 40 -5 40 -14 0 -15 -76 -194 -86 -203 -4 -3 -5 4 -2 15
6 22 -5 48 -19 50 -9 1 -56 19 -88 34 -45 20 -193 70 -208 70 -20 0 -20 1 -5
37 20 47 41 75 47 65 3 -5 31 -13 61 -17z m-2032 -457 c-8 -13 -20 -41 -26
-63 -15 -48 -24 -61 -77 -101 -43 -34 -169 -111 -224 -137 l-34 -17 18 20 c11
12 20 29 22 38 4 29 33 92 41 92 4 0 17 7 27 15 23 17 258 173 264 174 2 1 -3
-9 -11 -21z m4008 9 c-10 -7 -39 -28 -65 -47 -46 -35 -71 -52 -249 -159 -113
-69 -153 -90 -170 -91 -24 0 -2 19 61 53 186 100 390 231 379 242 -3 3 1 3 10
0 9 -4 19 -2 23 4 3 6 12 11 18 10 7 0 4 -6 -7 -12z m-3121 -1027 c-17 -18
-17 -20 -2 -14 14 5 16 1 12 -22 -2 -16 -14 -90 -26 -164 -11 -74 -34 -189
-51 -255 -16 -66 -33 -138 -38 -160 -24 -104 -70 -171 -160 -231 -19 -13 -64
-46 -100 -74 -65 -50 -96 -65 -68 -32 8 9 23 36 34 60 10 23 22 42 28 42 5 0
7 3 3 6 -3 4 5 29 20 57 49 98 141 367 174 512 11 50 25 103 30 119 5 15 7 32
4 36 -6 9 134 140 149 140 5 0 1 -9 -9 -20z m-4188 -26 c-3 -3 -12 -4 -19 -1
-8 3 -5 6 6 6 11 1 17 -2 13 -5z m-167 -84 c0 -5 -10 -10 -22 -10 -19 0 -20 2
-8 10 19 13 30 13 30 0z m217 -6 c-3 -3 -12 -4 -19 -1 -8 3 -5 6 6 6 11 1 17
-2 13 -5z m6386 -9 c-3 -9 -8 -14 -10 -11 -3 3 -2 9 2 15 9 16 15 13 8 -4z
m-6895 -15 c13 -9 4 -10 -38 -6 l-55 5 40 -14 c39 -14 38 -15 -45 -10 -47 3
-101 6 -120 7 -30 1 -27 2 15 8 46 6 43 7 -35 10 -47 1 -89 2 -93 1 -5 -1 -6
2 -3 7 7 12 314 5 334 -8z m-310 -17 c-16 -2 -40 -2 -55 0 -16 2 -3 4 27 4 30
0 43 -2 28 -4z m64 -20 c-40 -2 -103 -2 -140 0 -37 2 -4 3 73 3 77 0 107 -2
67 -3z m7093 -29 c-8 -16 -15 -23 -15 -16 0 13 22 53 27 48 2 -2 -3 -16 -12
-32z m-102 -49 c4 -8 3 -16 -1 -19 -4 -3 -9 4 -9 15 -2 23 3 25 10 4z m28 -78
c-10 -9 -11 -8 -5 6 3 10 9 15 12 12 3 -3 0 -11 -7 -18z m-140 -60 c-10 -9
-11 -8 -5 6 3 10 9 15 12 12 3 -3 0 -11 -7 -18z m37 9 c-7 -8 -15 -12 -17 -11
-5 6 10 25 20 25 5 0 4 -6 -3 -14z m63 -9 c-10 -9 -11 -8 -5 6 3 10 9 15 12
12 3 -3 0 -11 -7 -18z m-23 -46 c-7 -12 -16 -21 -21 -21 -8 0 0 17 18 36 16
18 18 8 3 -15z m-60 -95 c-13 -19 -24 -33 -26 -31 -5 4 37 65 44 65 2 0 -6
-15 -18 -34z m-106 -160 c-42 -63 -78 -113 -80 -111 -4 4 39 84 49 90 4 3 6
12 2 21 -5 12 -7 12 -19 -3 -11 -14 -13 -15 -13 -3 0 8 4 24 8 35 7 18 9 18
22 -7 l14 -27 39 59 c22 33 43 60 48 60 4 0 -27 -51 -70 -114z"/>
<path d="M5458 8753 c6 -2 18 -2 25 0 6 3 1 5 -13 5 -14 0 -19 -2 -12 -5z"/>
<path d="M5665 7660 c-3 -5 -1 -10 4 -10 6 0 11 5 11 10 0 6 -2 10 -4 10 -3 0
-8 -4 -11 -10z"/>
<path d="M5480 5940 c0 -8 5 -22 10 -30 9 -13 10 -13 10 0 0 8 -5 22 -10 30
-9 13 -10 13 -10 0z"/>
<path d="M408 1733 c7 -3 16 -2 19 1 4 3 -2 6 -13 5 -11 0 -14 -3 -6 -6z"/>
<path d="M7680 10615 c25 -8 85 -21 133 -30 48 -8 120 -24 160 -36 40 -11 90
-24 112 -29 94 -20 153 -40 117 -40 -5 0 -18 -3 -28 -7 -13 -5 -15 -3 -9 7 5
9 4 11 -4 6 -6 -4 -8 -12 -5 -18 5 -8 1 -9 -10 -5 -10 4 -19 7 -22 7 -2 0 -1
7 2 15 5 11 -1 15 -17 15 -19 0 -21 -2 -9 -10 13 -9 13 -10 0 -10 -23 -1 59
-35 117 -49 29 -7 58 -11 65 -8 7 3 1 6 -14 6 -16 1 -28 6 -28 12 0 7 15 10
40 7 32 -3 40 0 40 13 0 10 -10 19 -27 22 -16 2 -100 23 -187 47 -88 23 -205
50 -260 60 -56 11 -119 24 -141 29 -59 15 -77 12 -25 -4z m590 -150 c0 -2 -15
-3 -34 -3 -19 0 -45 -3 -57 -7 -13 -4 -21 -4 -17 0 15 16 108 25 108 10z"/>
<path d="M654 10562 c-10 -6 -26 -52 -19 -52 2 0 10 14 19 30 8 17 14 30 13
30 -1 0 -7 -4 -13 -8z"/>
<path d="M7805 10550 c-17 -7 -14 -9 13 -9 20 -1 31 3 27 9 -7 12 -13 12 -40
0z"/>
<path d="M595 10530 c-3 -6 1 -7 9 -4 18 7 21 14 7 14 -6 0 -13 -4 -16 -10z"/>
<path d="M7960 10517 c19 -7 48 -11 63 -9 38 6 32 8 -38 16 -57 6 -58 5 -25
-7z"/>
<path d="M8035 10500 c-23 -6 -25 -8 -8 -9 12 0 30 -4 40 -7 13 -4 15 -3 4 4
-11 8 -11 10 0 15 20 8 -1 6 -36 -3z"/>
<path d="M770 10409 c-31 -105 -33 -115 -26 -108 9 8 56 172 51 177 -2 2 -13
-29 -25 -69z"/>
<path d="M542 10405 c-130 -86 -299 -216 -469 -359 l-73 -61 1 -267 c0 -187 3
-267 11 -265 6 1 13 -13 15 -32 4 -27 2 -33 -11 -28 -15 6 -16 -113 -16 -1256
l0 -1263 29 -17 c17 -10 33 -16 38 -15 8 2 96 -26 197 -62 34 -12 72 -35 89
-53 16 -18 48 -52 71 -77 72 -77 71 -78 -60 -28 -28 10 -69 21 -90 25 -46 7
-121 61 -210 153 -35 36 -64 60 -64 53 0 -19 234 -233 366 -335 246 -191 565
-389 822 -509 59 -27 118 -56 132 -64 55 -30 335 -136 500 -190 251 -81 597
-161 840 -194 166 -23 437 -38 565 -31 l40 2 -48 13 c-49 13 -131 70 -192 133
-40 42 -38 58 3 19 61 -59 154 -119 205 -133 64 -17 131 -18 156 -2 18 11 60
4 48 -9 -4 -3 -24 -10 -44 -14 -74 -16 212 0 362 21 142 19 401 73 414 86 3 3
-21 2 -54 -3 -33 -4 -172 -8 -310 -8 -211 1 -269 4 -371 23 -248 44 -439 100
-709 207 -139 55 -241 105 -378 187 -55 32 -101 58 -103 58 -8 0 -250 163
-274 184 -14 13 -47 38 -75 57 -150 101 -462 409 -617 609 -467 605 -733 1243
-813 1954 -31 276 -16 713 36 1011 11 66 36 197 44 233 3 12 2 21 -2 20 -5 -2
-34 13 -66 33 -64 39 -64 39 6 78 38 21 38 21 59 1 12 -10 24 -17 28 -15 4 2
15 35 25 72 10 37 22 73 27 80 6 7 8 17 6 23 -2 6 -41 -15 -86 -45z m-484
-1065 c3 -8 6 -22 7 -30 0 -8 7 -14 14 -12 17 3 10 -30 -8 -36 -8 -3 -11 0 -7
7 4 6 2 11 -3 11 -6 0 -11 10 -11 23 0 13 -5 28 -10 33 -6 6 -7 19 -3 29 5 15
8 16 11 4 2 -7 6 -21 10 -29z m32 -100 c-6 -11 -13 -20 -16 -20 -2 0 0 9 6 20
6 11 13 20 16 20 2 0 0 -9 -6 -20z m2210 -3216 c9 -10 12 -38 10 -82 -2 -37
-4 -77 -4 -89 -1 -28 1 -28 -40 -1 -33 22 -34 24 -28 73 3 27 6 61 6 75 1 40
33 53 56 24z m1195 -400 c55 -9 165 -20 245 -24 l145 -9 -165 5 c-91 2 -178 6
-195 8 -55 6 -156 27 -178 36 -26 11 -5 9 148 -16z m-29 -39 c-23 -17 -36 -19
-36 -6 0 5 8 12 18 14 32 9 37 6 18 -8z"/>
<path d="M370 10379 c-22 -18 -22 -19 -3 -10 12 6 25 16 28 21 9 15 3 12 -25
-11z"/>
<path d="M3464 10358 c-73 -55 -314 -281 -314 -294 0 -4 46 38 103 92 56 55
131 124 167 153 36 29 69 57 75 62 18 17 -1 9 -31 -13z"/>
<path d="M306 10335 c-11 -8 -15 -15 -9 -15 6 0 16 7 23 15 16 19 11 19 -14 0z"/>
<path d="M254 10295 c-10 -8 -14 -15 -8 -15 6 0 17 7 24 15 16 19 9 19 -16 0z"/>
<path d="M195 10250 c-16 -11 -25 -20 -20 -20 10 0 64 39 55 40 -3 0 -18 -9
-35 -20z"/>
<path d="M722 10240 c0 -14 2 -19 5 -12 2 6 2 18 0 25 -3 6 -5 1 -5 -13z"/>
<path d="M134 10198 l-19 -23 23 19 c12 11 22 21 22 23 0 8 -8 2 -26 -19z"/>
<path d="M90 10165 c-11 -13 -10 -14 4 -9 9 3 16 10 16 15 0 13 -6 11 -20 -6z"/>
<path d="M691 10124 c0 -11 3 -14 6 -6 3 7 2 16 -1 19 -3 4 -6 -2 -5 -13z"/>
<path d="M670 10025 c-7 -36 -10 -68 -8 -70 3 -3 10 25 17 61 6 37 10 68 8 71
-3 2 -10 -26 -17 -62z"/>
<path d="M3129 10052 c-2 -5 -41 -49 -86 -98 -73 -80 -127 -148 -231 -289 -18
-25 -30 -45 -27 -45 2 0 43 52 90 116 47 63 127 160 177 215 49 55 88 102 85
105 -3 3 -7 1 -8 -4z"/>
<path d="M652 9920 c0 -14 2 -19 5 -12 2 6 2 18 0 25 -3 6 -5 1 -5 -13z"/>
<path d="M641 9874 c0 -11 3 -14 6 -6 3 7 2 16 -1 19 -3 4 -6 -2 -5 -13z"/>
<path d="M631 9804 c0 -11 3 -14 6 -6 3 7 2 16 -1 19 -3 4 -6 -2 -5 -13z"/>
<path d="M1491 9794 c0 -11 3 -14 6 -6 3 7 2 16 -1 19 -3 4 -6 -2 -5 -13z"/>
<path d="M2763 9598 c-15 -20 -25 -38 -20 -38 3 0 12 11 21 25 17 26 16 35 -1
13z"/>
<path d="M602 9575 c0 -16 2 -22 5 -12 2 9 2 23 0 30 -3 6 -5 -1 -5 -18z"/>
<path d="M1462 9565 c0 -16 2 -22 5 -12 2 9 2 23 0 30 -3 6 -5 -1 -5 -18z"/>
<path d="M1453 9480 c0 -25 2 -35 4 -22 2 12 2 32 0 45 -2 12 -4 2 -4 -23z"/>
<path d="M2700 9500 c-6 -11 -8 -20 -6 -20 3 0 10 9 16 20 6 11 8 20 6 20 -3
0 -10 -9 -16 -20z"/>
<path d="M2650 9420 c-6 -11 -8 -20 -6 -20 3 0 10 9 16 20 6 11 8 20 6 20 -3
0 -10 -9 -16 -20z"/>
<path d="M1444 9165 c0 -121 2 -169 3 -107 2 62 2 161 0 220 -1 59 -3 8 -3
-113z"/>
<path d="M5395 9370 c-38 -3 63 -4 225 -2 162 2 300 5 305 7 17 6 -456 2 -530
-5z"/>
<path d="M5968 9363 c17 -2 47 -2 65 0 17 2 3 4 -33 4 -36 0 -50 -2 -32 -4z"/>
<path d="M5248 9353 c12 -2 32 -2 45 0 12 2 2 4 -23 4 -25 0 -35 -2 -22 -4z"/>
<path d="M6113 9353 c15 -2 39 -2 55 0 15 2 2 4 -28 4 -30 0 -43 -2 -27 -4z"/>
<path d="M2600 9329 c-7 -11 -10 -23 -7 -25 2 -2 9 7 15 21 14 30 7 33 -8 4z"/>
<path d="M5173 9343 c9 -2 25 -2 35 0 9 3 1 5 -18 5 -19 0 -27 -2 -17 -5z"/>
<path d="M6208 9343 c6 -2 18 -2 25 0 6 3 1 5 -13 5 -14 0 -19 -2 -12 -5z"/>
<path d="M5031 9329 c-30 -5 -57 -12 -60 -15 -6 -6 61 2 134 16 59 12 -4 10
-74 -1z"/>
<path d="M6288 9333 c6 -2 18 -2 25 0 6 3 1 5 -13 5 -14 0 -19 -2 -12 -5z"/>
<path d="M6340 9330 c8 -5 28 -10 44 -10 39 0 30 6 -19 13 -27 4 -35 3 -25 -3z"/>
<path d="M6421 9316 c2 -2 27 -6 54 -9 34 -4 42 -3 25 3 -25 8 -87 13 -79 6z"/>
<path d="M4878 9293 c7 -3 16 -2 19 1 4 3 -2 6 -13 5 -11 0 -14 -3 -6 -6z"/>
<path d="M6543 9293 c9 -2 23 -2 30 0 6 3 -1 5 -18 5 -16 0 -22 -2 -12 -5z"/>
<path d="M6598 9283 c7 -3 16 -2 19 1 4 3 -2 6 -13 5 -11 0 -14 -3 -6 -6z"/>
<path d="M4750 9270 c-20 -6 -21 -8 -5 -8 11 0 34 4 50 8 27 7 27 8 5 8 -14 0
-36 -4 -50 -8z"/>
<path d="M6638 9273 c7 -3 16 -2 19 1 4 3 -2 6 -13 5 -11 0 -14 -3 -6 -6z"/>
<path d="M6678 9263 c6 -2 18 -2 25 0 6 3 1 5 -13 5 -14 0 -19 -2 -12 -5z"/>
<path d="M6733 9253 c9 -2 23 -2 30 0 6 3 -1 5 -18 5 -16 0 -22 -2 -12 -5z"/>
<path d="M4668 9243 c7 -3 16 -2 19 1 4 3 -2 6 -13 5 -11 0 -14 -3 -6 -6z"/>
<path d="M4628 9233 c7 -3 16 -2 19 1 4 3 -2 6 -13 5 -11 0 -14 -3 -6 -6z"/>
<path d="M4493 9196 c-50 -17 -95 -34 -98 -38 -7 -6 151 42 195 60 53 22 -9 8
-97 -22z"/>
<path d="M6865 9220 c11 -5 27 -9 35 -9 9 0 8 4 -5 9 -11 5 -27 9 -35 9 -9 0
-8 -4 5 -9z"/>
<path d="M2536 9205 c-9 -26 -7 -32 5 -12 6 10 9 21 6 23 -2 3 -7 -2 -11 -11z"/>
<path d="M583 9175 c0 -22 2 -30 4 -17 2 12 2 30 0 40 -3 9 -5 -1 -4 -23z"/>
<path d="M553 9125 c0 -44 2 -61 4 -37 2 23 2 59 0 80 -2 20 -4 1 -4 -43z"/>
<path d="M7005 9180 c11 -5 27 -9 35 -9 9 0 8 4 -5 9 -11 5 -27 9 -35 9 -9 0
-8 -4 5 -9z"/>
<path d="M7150 9135 c93 -33 119 -41 108 -30 -8 8 -178 65 -191 64 -7 0 31
-16 83 -34z"/>
<path d="M4295 9121 c-22 -11 -35 -19 -30 -19 14 -1 93 36 80 37 -5 0 -28 -8
-50 -18z"/>
<path d="M2495 9119 c-4 -6 -5 -12 -2 -15 2 -3 7 2 10 11 7 17 1 20 -8 4z"/>
<path d="M4220 9090 c-8 -5 -10 -10 -5 -10 6 0 17 5 25 10 8 5 11 10 5 10 -5
0 -17 -5 -25 -10z"/>
<path d="M7290 9087 c14 -8 36 -17 50 -21 l25 -7 -25 14 c-14 8 -36 17 -50 21
l-25 7 25 -14z"/>
<path d="M2476 9075 c-9 -26 -7 -32 5 -12 6 10 9 21 6 23 -2 3 -7 -2 -11 -11z"/>
<path d="M4175 9070 c-3 -6 1 -7 9 -4 18 7 21 14 7 14 -6 0 -13 -4 -16 -10z"/>
<path d="M4116 9045 c-25 -19 -9 -19 24 0 14 8 19 14 10 14 -8 0 -24 -6 -34
-14z"/>
<path d="M7378 9053 c7 -3 16 -2 19 1 4 3 -2 6 -13 5 -11 0 -14 -3 -6 -6z"/>
<path d="M7449 9025 c18 -8 38 -15 45 -14 15 1 -46 28 -64 28 -8 0 0 -6 19
-14z"/>
<path d="M4052 9013 c-18 -8 -31 -18 -28 -20 5 -5 66 25 66 32 0 7 -1 7 -38
-12z"/>
<path d="M562 8970 c0 -14 2 -19 5 -12 2 6 2 18 0 25 -3 6 -5 1 -5 -13z"/>
<path d="M7551 8986 c2 -2 38 -18 79 -34 128 -51 399 -187 548 -276 78 -46
142 -81 142 -77 0 4 -24 21 -52 37 -29 17 -98 57 -153 89 -175 102 -604 300
-564 261z"/>
<path d="M3883 8921 c-110 -64 -352 -241 -393 -287 -14 -16 -1 -8 30 17 30 25
93 73 140 107 47 34 103 75 125 91 22 16 77 50 123 76 71 41 91 55 79 55 -1 0
-48 -27 -104 -59z"/>
<path d="M2426 8955 c-9 -26 -7 -32 5 -12 6 10 9 21 6 23 -2 3 -7 -2 -11 -11z"/>
<path d="M7993 8935 c-9 -10 -6 -12 14 -12 14 0 21 2 17 6 -5 3 -11 9 -14 13
-3 3 -10 0 -17 -7z"/>
<path d="M571 8884 c0 -11 3 -14 6 -6 3 7 2 16 -1 19 -3 4 -6 -2 -5 -13z"/>
<path d="M1457 8820 c3 -36 7 -67 9 -69 7 -8 2 73 -6 104 -5 19 -6 6 -3 -35z"/>
<path d="M8186 8821 c-6 -10 24 -25 32 -16 3 3 0 5 -7 5 -7 0 -9 5 -6 10 3 6
2 10 -4 10 -5 0 -12 -4 -15 -9z"/>
<path d="M8175 8763 c14 -14 153 -89 140 -75 -5 5 -41 27 -80 48 -38 20 -65
33 -60 27z"/>
<path d="M2351 8724 c0 -11 3 -14 6 -6 3 7 2 16 -1 19 -3 4 -6 -2 -5 -13z"/>
<path d="M1472 8700 c0 -14 2 -19 5 -12 2 6 2 18 0 25 -3 6 -5 1 -5 -13z"/>
<path d="M2325 8640 c-4 -17 -5 -34 -2 -36 2 -3 7 10 11 27 8 42 0 50 -9 9z"/>
<path d="M612 8650 c-1 -8 5 -42 13 -75 7 -33 14 -49 14 -35 0 14 -6 48 -13
75 -8 28 -14 43 -14 35z"/>
<path d="M3395 8555 c-33 -30 -56 -54 -52 -55 4 0 34 25 65 55 74 71 64 71
-13 0z"/>
<path d="M6525 8590 c11 -5 27 -9 35 -9 9 0 8 4 -5 9 -11 5 -27 9 -35 9 -9 0
-8 -4 5 -9z"/>
<path d="M1491 8574 c0 -11 3 -14 6 -6 3 7 2 16 -1 19 -3 4 -6 -2 -5 -13z"/>
<path d="M2296 8526 c-9 -36 -16 -73 -15 -83 1 -10 10 18 20 61 11 44 18 81
15 83 -2 2 -11 -25 -20 -61z"/>
<path d="M6654 8549 c27 -11 50 -18 53 -16 5 6 -73 37 -90 36 -6 0 10 -9 37
-20z"/>
<path d="M1501 8524 c-1 -27 41 -217 81 -358 49 -178 180 -519 220 -573 18
-23 99 -183 93 -183 -3 0 -1 -6 5 -12 6 -7 18 -22 26 -33 24 -31 15 -12 -77
170 -149 294 -241 546 -308 840 -35 155 -39 171 -40 149z"/>
<path d="M2265 8500 c-4 -23 -5 -43 -2 -46 2 -3 7 14 11 37 4 23 5 44 2 46 -2
2 -7 -14 -11 -37z"/>
<path d="M644 8490 c3 -14 6 -32 6 -39 0 -10 3 -12 10 -5 7 7 5 20 -6 40 -15
27 -15 27 -10 4z"/>
<path d="M3962 8453 c-13 -5 -7 -23 9 -23 6 0 8 4 5 9 -4 5 0 12 6 14 7 3 9 5
3 5 -5 0 -16 -2 -23 -5z"/>
<path d="M7160 8424 c0 -7 52 -25 57 -20 2 2 -10 8 -26 14 -17 6 -31 9 -31 6z"/>
<path d="M2273 8385 c0 -22 2 -30 4 -17 2 12 2 30 0 40 -3 9 -5 -1 -4 -23z"/>
<path d="M672 8385 c0 -16 2 -22 5 -12 2 9 2 23 0 30 -3 6 -5 -1 -5 -18z"/>
<path d="M4881 8406 c2 -2 40 -6 84 -9 59 -4 69 -3 40 3 -40 9 -132 13 -124 6z"/>
<path d="M5140 8370 c241 -45 499 -128 717 -231 46 -21 87 -39 89 -39 25 0
339 -192 454 -278 226 -169 509 -445 682 -667 496 -638 811 -1456 890 -2310
16 -177 16 -679 0 -835 -46 -453 -119 -817 -240 -1195 -41 -129 -145 -404
-197 -520 -8 -16 -26 -59 -40 -95 -15 -36 -61 -130 -103 -210 -41 -80 -82
-158 -90 -175 -18 -36 -180 -307 -231 -385 -20 -30 -70 -102 -111 -159 -41
-57 -88 -122 -104 -145 -58 -80 -261 -332 -344 -426 -118 -133 -406 -417 -537
-530 -61 -52 -122 -105 -136 -118 -14 -12 -34 -29 -45 -37 -10 -8 -15 -15 -10
-15 46 -1 579 504 788 748 306 357 574 746 775 1127 259 489 466 1074 562
1590 59 318 80 514 88 846 15 643 -76 1173 -312 1804 -74 199 -303 641 -410
790 -26 37 -69 100 -96 139 -108 162 -379 461 -543 600 -27 22 -58 50 -70 62
-61 61 -300 229 -446 314 -193 113 -465 229 -688 294 -129 38 -316 77 -360 75
-15 0 16 -9 68 -19z"/>
<path d="M2243 8335 c0 -27 2 -38 4 -22 2 15 2 37 0 50 -2 12 -4 0 -4 -28z"/>
<path d="M681 8339 c1 -17 37 -118 38 -104 0 17 -24 104 -32 111 -4 4 -7 1 -6
-7z"/>
<path d="M5108 8323 c7 -3 16 -2 19 1 4 3 -2 6 -13 5 -11 0 -14 -3 -6 -6z"/>
<path d="M7361 8326 c2 -2 15 -9 29 -15 24 -11 24 -11 6 3 -16 13 -49 24 -35
12z"/>
<path d="M2986 8276 c-21 -25 -53 -55 -71 -68 -45 -30 -75 -86 -80 -145 -2
-27 -12 -75 -24 -108 -11 -33 -25 -80 -31 -105 -16 -68 -40 -259 -38 -310 1
-33 2 -37 5 -15 27 204 95 435 177 605 46 94 54 110 89 162 27 41 16 34 -27
-16z"/>
<path d="M5175 8309 c51 -10 92 -10 50 1 -16 4 -43 8 -60 8 -25 0 -24 -2 10
-9z"/>
<path d="M4588 8293 c6 -2 18 -2 25 0 6 3 1 5 -13 5 -14 0 -19 -2 -12 -5z"/>
<path d="M5268 8293 c7 -3 16 -2 19 1 4 3 -2 6 -13 5 -11 0 -14 -3 -6 -6z"/>
<path d="M4648 8283 c6 -2 18 -2 25 0 6 3 1 5 -13 5 -14 0 -19 -2 -12 -5z"/>
<path d="M5301 8286 c7 -7 183 -55 187 -51 4 4 -160 55 -179 55 -7 0 -10 -2
-8 -4z"/>
<path d="M2231 8204 c0 -38 4 -89 9 -114 5 -29 6 -5 2 65 -5 124 -12 154 -11
49z"/>
<path d="M2253 8235 c0 -22 2 -30 4 -17 2 12 2 30 0 40 -3 9 -5 -1 -4 -23z"/>
<path d="M3610 8260 c0 -5 7 -7 15 -4 8 4 15 8 15 10 0 2 -7 4 -15 4 -8 0 -15
-4 -15 -10z"/>
<path d="M7530 8236 c0 -7 72 -47 77 -42 3 2 -13 14 -36 26 -23 11 -41 19 -41
16z"/>
<path d="M721 8210 c0 -8 6 -28 14 -45 17 -39 18 -21 0 25 -7 19 -14 28 -14
20z"/>
<path d="M5530 8216 c0 -3 17 -10 38 -16 20 -7 51 -18 67 -26 71 -31 108 -44
113 -39 3 2 -6 9 -19 14 -189 73 -199 77 -199 67z"/>
<path d="M3224 8128 l-29 -33 33 29 c30 28 37 36 29 36 -2 0 -16 -15 -33 -32z"/>
<path d="M7692 8134 c10 -10 20 -16 22 -13 3 3 -5 11 -17 18 -21 13 -21 12 -5
-5z"/>
<path d="M750 8124 c0 -14 43 -137 70 -196 22 -51 37 -67 18 -20 -6 15 -28 72
-49 127 -21 55 -38 95 -39 89z"/>
<path d="M5790 8110 c8 -5 20 -10 25 -10 6 0 3 5 -5 10 -8 5 -19 10 -25 10 -5
0 -3 -5 5 -10z"/>
<path d="M2221 8094 c0 -11 3 -14 6 -6 3 7 2 16 -1 19 -3 4 -6 -2 -5 -13z"/>
<path d="M5844 8086 c11 -9 24 -16 30 -16 12 0 7 5 -24 19 -24 11 -24 11 -6
-3z"/>
<path d="M7751 8096 c2 -2 15 -9 29 -15 24 -11 24 -11 6 3 -16 13 -49 24 -35
12z"/>
<path d="M3159 8063 c-13 -16 -12 -17 4 -4 9 7 17 15 17 17 0 8 -8 3 -21 -13z"/>
<path d="M5911 8056 c10 -9 69 -36 69 -32 0 6 -55 36 -66 36 -4 0 -5 -2 -3 -4z"/>
<path d="M7810 8057 c0 -3 33 -27 73 -54 88 -60 97 -65 97 -60 0 3 -33 27 -72
54 -85 58 -98 66 -98 60z"/>
<path d="M2225 7916 c4 -77 11 -162 16 -190 6 -40 7 -32 3 34 -2 47 -6 130 -9
184 -3 55 -8 102 -11 105 -3 3 -3 -57 1 -133z"/>
<path d="M3124 8018 l-19 -23 23 19 c21 18 27 26 19 26 -2 0 -12 -10 -23 -22z"/>
<path d="M6050 7980 c78 -52 190 -117 190 -112 -1 8 -155 104 -185 114 -15 6
-16 5 -5 -2z"/>
<path d="M3069 7953 l-24 -28 28 24 c25 23 32 31 24 31 -2 0 -14 -12 -28 -27z"/>
<path d="M7984 7928 c-4 -7 -4 -10 1 -6 4 4 15 2 24 -5 14 -11 14 -10 2 6 -16
20 -18 21 -27 5z"/>
<path d="M2651 7914 c0 -11 3 -14 6 -6 3 7 2 16 -1 19 -3 4 -6 -2 -5 -13z"/>
<path d="M2867 7863 c-42 -95 -118 -393 -117 -453 1 -26 31 72 56 183 1 4 2
21 3 38 1 20 5 28 13 23 6 -4 8 -3 5 3 -9 14 27 136 36 126 5 -4 5 0 1 10 -4
10 -1 17 6 17 7 0 10 7 6 16 -3 9 -2 12 5 8 6 -4 9 1 7 13 -1 10 5 31 15 46
14 21 14 27 4 27 -8 0 -26 -26 -40 -57z"/>
<path d="M3028 7903 c-31 -37 -147 -221 -181 -288 -43 -87 -97 -257 -96 -305
0 -29 3 -25 14 25 32 145 120 341 221 491 61 91 74 114 42 77z"/>
<path d="M8029 7891 c7 -5 11 -13 7 -19 -3 -6 1 -8 11 -6 11 2 36 -12 63 -37
44 -39 80 -64 80 -55 0 8 -153 126 -164 126 -6 0 -5 -4 3 -9z"/>
<path d="M2642 7860 c0 -14 2 -19 5 -12 2 6 2 18 0 25 -3 6 -5 1 -5 -13z"/>
<path d="M7966 7866 c10 -8 21 -12 24 -10 5 6 -21 24 -34 24 -6 0 -1 -6 10
-14z"/>
<path d="M851 7860 c0 -15 48 -111 49 -98 0 3 -11 30 -25 60 -14 29 -25 46
-24 38z"/>
<path d="M6295 7823 c22 -14 58 -41 80 -58 80 -63 115 -87 115 -79 0 5 -12 17
-28 26 -15 10 -47 33 -72 53 -58 45 -118 85 -127 85 -4 0 10 -12 32 -27z"/>
<path d="M8080 7820 c0 -5 5 -10 11 -10 5 0 7 5 4 10 -3 6 -8 10 -11 10 -2 0
-4 -4 -4 -10z"/>
<path d="M2632 7800 c0 -14 2 -19 5 -12 2 6 2 18 0 25 -3 6 -5 1 -5 -13z"/>
<path d="M8120 7785 c7 -8 17 -15 22 -15 6 0 5 7 -2 15 -7 8 -17 15 -22 15 -6
0 -5 -7 2 -15z"/>
<path d="M901 7745 c0 -5 8 -26 19 -45 11 -19 19 -30 19 -25 0 6 -8 26 -19 45
-11 19 -19 31 -19 25z"/>
<path d="M2623 7715 c0 -22 2 -30 4 -17 2 12 2 30 0 40 -3 9 -5 -1 -4 -23z"/>
<path d="M2252 7650 c0 -14 2 -19 5 -12 2 6 2 18 0 25 -3 6 -5 1 -5 -13z"/>
<path d="M6500 7667 c0 -2 26 -25 58 -50 61 -48 257 -238 330 -321 23 -26 42
-44 42 -38 0 16 -238 260 -325 332 -80 67 -105 85 -105 77z"/>
<path d="M2613 7590 c0 -36 2 -50 4 -32 2 17 2 47 0 65 -2 17 -4 3 -4 -33z"/>
<path d="M8265 7610 c3 -5 8 -10 11 -10 2 0 4 5 4 10 0 6 -5 10 -11 10 -5 0
-7 -4 -4 -10z"/>
<path d="M2272 7520 c0 -14 2 -19 5 -12 2 6 2 18 0 25 -3 6 -5 1 -5 -13z"/>
<path d="M1030 7495 c0 -5 10 -21 21 -35 13 -17 17 -18 10 -5 -17 33 -31 51
-31 40z"/>
<path d="M2282 7460 c0 -14 2 -19 5 -12 2 6 2 18 0 25 -3 6 -5 1 -5 -13z"/>
<path d="M2291 7414 c0 -11 3 -14 6 -6 3 7 2 16 -1 19 -3 4 -6 -2 -5 -13z"/>
<path d="M2612 7345 c-2 -93 30 -303 66 -440 47 -174 100 -304 193 -468 29
-50 52 -97 52 -104 0 -7 4 -10 8 -8 4 3 9 -1 12 -8 5 -13 87 -83 87 -74 0 2
-12 17 -26 33 -191 216 -353 657 -384 1044 -7 94 -7 94 -8 25z"/>
<path d="M2301 7374 c0 -11 3 -14 6 -6 3 7 2 16 -1 19 -3 4 -6 -2 -5 -13z"/>
<path d="M1950 7324 c0 -6 7 -19 16 -30 14 -18 14 -18 3 6 -14 31 -19 36 -19
24z"/>
<path d="M1150 7300 c6 -11 13 -20 16 -20 2 0 0 9 -6 20 -6 11 -13 20 -16 20
-2 0 0 -9 6 -20z"/>
<path d="M1981 7265 c0 -5 6 -19 14 -29 8 -11 15 -15 15 -10 0 6 -7 19 -15 30
-8 10 -14 15 -14 9z"/>
<path d="M1180 7253 c0 -6 8 -17 18 -24 16 -13 16 -13 2 6 -8 11 -16 22 -17
24 -2 2 -3 0 -3 -6z"/>
<path d="M6940 7245 c0 -6 111 -145 117 -145 2 0 -8 17 -24 38 -33 45 -93 114
-93 107z"/>
<path d="M2351 7210 c0 -8 4 -22 9 -30 12 -18 12 -2 0 25 -6 13 -9 15 -9 5z"/>
<path d="M2086 7093 c42 -65 91 -137 110 -160 22 -27 32 -48 28 -60 -4 -13 -3
-14 3 -5 7 10 28 -10 80 -75 95 -119 285 -316 397 -411 366 -313 751 -520
1185 -638 36 -10 61 -19 55 -21 -34 -11 -501 142 -618 203 -28 15 -73 38 -101
52 -27 14 -72 40 -99 59 -26 18 -53 33 -60 33 -6 -1 3 -8 19 -17 17 -9 32 -19
35 -23 10 -14 217 -128 305 -168 160 -73 362 -142 415 -142 15 0 20 -3 13 -8
-14 -9 145 -5 227 5 l55 7 -69 8 c-80 10 -309 66 -411 101 -423 146 -880 457
-1217 829 -112 124 -275 332 -348 446 -36 56 -68 101 -72 102 -5 0 26 -53 68
-117z"/>
<path d="M2390 7095 c0 -5 5 -17 10 -25 5 -8 10 -10 10 -5 0 6 -5 17 -10 25
-5 8 -10 11 -10 5z"/>
<path d="M7060 7086 c0 -2 8 -10 18 -17 15 -13 16 -12 3 4 -13 16 -21 21 -21
13z"/>
<path d="M5950 7051 c4 -16 13 -38 20 -48 11 -17 11 -17 4 2 -3 11 -9 30 -11
43 -3 12 -9 25 -14 27 -4 3 -4 -8 1 -24z"/>
<path d="M1326 7047 c3 -10 9 -15 12 -12 3 3 0 11 -7 18 -10 9 -11 8 -5 -6z"/>
<path d="M2410 7043 c1 -11 39 -80 40 -72 0 11 -30 79 -35 79 -3 0 -5 -3 -5
-7z"/>
<path d="M7126 6997 c21 -31 42 -56 46 -57 9 0 -59 97 -74 106 -6 4 7 -18 28
-49z"/>
<path d="M1370 6986 c0 -2 8 -10 18 -17 15 -13 16 -12 3 4 -13 16 -21 21 -21
13z"/>
<path d="M5712 6970 c0 -14 2 -19 5 -12 2 6 2 18 0 25 -3 6 -5 1 -5 -13z"/>
<path d="M1425 6920 c10 -11 20 -20 22 -20 2 0 -2 9 -9 20 -7 11 -17 20 -22
20 -5 0 -1 -9 9 -20z"/>
<path d="M5722 6895 c0 -16 2 -22 5 -12 2 9 2 23 0 30 -3 6 -5 -1 -5 -18z"/>
<path d="M2480 6890 c6 -11 13 -20 16 -20 2 0 0 9 -6 20 -6 11 -13 20 -16 20
-2 0 0 -9 6 -20z"/>
<path d="M6500 6890 c6 -11 13 -20 16 -20 2 0 0 9 -6 20 -6 11 -13 20 -16 20
-2 0 0 -9 6 -20z"/>
<path d="M7200 6906 c0 -12 109 -187 128 -206 10 -9 8 -3 -3 15 -11 17 -33 53
-50 80 -65 105 -75 120 -75 111z"/>
<path d="M2500 6854 c0 -6 7 -19 16 -30 14 -18 14 -18 3 6 -14 31 -19 36 -19
24z"/>
<path d="M6535 6830 c9 -16 18 -30 21 -30 2 0 -2 14 -11 30 -9 17 -18 30 -21
30 -2 0 2 -13 11 -30z"/>
<path d="M5733 6800 c0 -25 2 -35 4 -22 2 12 2 32 0 45 -2 12 -4 2 -4 -23z"/>
<path d="M6566 6777 c3 -10 9 -15 12 -12 3 3 0 11 -7 18 -10 9 -11 8 -5 -6z"/>
<path d="M2550 6760 c6 -11 13 -20 16 -20 2 0 0 9 -6 20 -6 11 -13 20 -16 20
-2 0 0 -9 6 -20z"/>
<path d="M2335 6720 c10 -11 20 -20 23 -20 3 0 -3 9 -13 20 -10 11 -20 20 -23
20 -3 0 3 -9 13 -20z"/>
<path d="M5591 6724 c0 -11 3 -14 6 -6 3 7 2 16 -1 19 -3 4 -6 -2 -5 -13z"/>
<path d="M2577 6713 c9 -26 72 -123 79 -123 3 0 0 10 -8 23 -8 12 -27 43 -42
70 -29 48 -40 60 -29 30z"/>
<path d="M5743 6635 c0 -44 2 -61 4 -37 2 23 2 59 0 80 -2 20 -4 1 -4 -43z"/>
<path d="M5570 6643 c-21 -102 -41 -156 -88 -238 -198 -350 -594 -625 -1157
-805 -482 -153 -1092 -200 -1645 -125 -140 19 -210 34 -210 46 0 6 5 7 12 3 7
-4 8 -3 4 4 -4 7 -15 12 -24 13 -9 0 -1 7 18 14 19 7 31 14 25 14 -5 1 -84 17
-175 36 -91 19 -190 40 -220 46 -30 6 -64 15 -75 20 -65 27 -125 37 -161 27
-24 -6 -33 -13 -25 -18 10 -5 8 -9 -4 -14 -16 -6 -51 3 -195 51 -117 39 -134
43 -124 34 22 -21 354 -127 599 -191 346 -92 830 -147 1175 -135 492 17 868
88 1242 236 221 88 471 227 612 343 44 36 84 62 89 59 6 -3 7 -2 4 4 -7 11 52
73 68 71 5 0 17 11 25 25 13 23 122 178 140 200 3 4 5 -14 4 -40 -2 -28 -18
-84 -38 -132 -20 -47 -34 -86 -32 -88 5 -6 54 102 87 192 28 76 95 392 85 402
-2 2 -10 -22 -16 -54z m-53 -245 c-3 -8 -6 -5 -6 6 -1 11 2 17 5 13 3 -3 4
-12 1 -19z m-3540 -724 c-3 -3 -12 -4 -19 -1 -8 3 -5 6 6 6 11 1 17 -2 13 -5z
m-62 -24 l20 -9 -20 1 c-11 0 -33 4 -50 8 l-30 8 30 0 c17 0 39 -3 50 -8z m62
4 c-3 -3 -12 -4 -19 -1 -8 3 -5 6 6 6 11 1 17 -2 13 -5z m-10 -20 c-3 -3 -12
-4 -19 -1 -8 3 -5 6 6 6 11 1 17 -2 13 -5z m160 0 c-3 -3 -12 -4 -19 -1 -8 3
-5 6 6 6 11 1 17 -2 13 -5z m170 -60 c-3 -3 -12 -4 -19 -1 -8 3 -5 6 6 6 11 1
17 -2 13 -5z m156 -11 c-7 -2 -19 -2 -25 0 -7 3 -2 5 12 5 14 0 19 -2 13 -5z"/>
<path d="M2390 6655 c19 -19 36 -35 39 -35 3 0 -10 16 -29 35 -19 19 -36 35
-39 35 -3 0 10 -16 29 -35z"/>
<path d="M6645 6620 c9 -16 18 -30 21 -30 2 0 -2 14 -11 30 -9 17 -18 30 -21
30 -2 0 2 -13 11 -30z"/>
<path d="M2580 6636 c0 -2 8 -10 18 -17 15 -13 16 -12 3 4 -13 16 -21 21 -21
13z"/>
<path d="M150 6551 c30 -28 69 -61 85 -72 39 -28 -47 52 -100 93 -27 21 -22
14 15 -21z"/>
<path d="M2620 6590 c0 -5 5 -10 11 -10 5 0 7 5 4 10 -3 6 -8 10 -11 10 -2 0
-4 -4 -4 -10z"/>
<path d="M2490 6545 c19 -19 36 -35 39 -35 3 0 -10 16 -29 35 -19 19 -36 35
-39 35 -3 0 10 -16 29 -35z"/>
<path d="M2654 6573 c-6 -2 23 -37 65 -78 78 -76 112 -99 43 -29 -21 21 -51
55 -67 75 -17 20 -35 34 -41 32z"/>
<path d="M7572 6516 c7 -8 15 -12 17 -11 5 6 -10 25 -20 25 -5 0 -4 -6 3 -14z"/>
<path d="M2555 6480 c10 -11 20 -20 23 -20 3 0 -3 9 -13 20 -10 11 -20 20 -23
20 -3 0 3 -9 13 -20z"/>
<path d="M6092 6480 c0 -14 2 -19 5 -12 2 6 2 18 0 25 -3 6 -5 1 -5 -13z"/>
<path d="M5733 6420 c0 -25 2 -35 4 -22 2 12 2 32 0 45 -2 12 -4 2 -4 -23z"/>
<path d="M7576 6433 c-6 -14 -5 -15 5 -6 7 7 10 15 7 18 -3 3 -9 -2 -12 -12z"/>
<path d="M2621 6421 c3 -8 25 -30 50 -50 24 -19 33 -24 19 -11 -14 14 -36 36
-49 50 -13 14 -22 19 -20 11z"/>
<path d="M6102 6410 c0 -14 2 -19 5 -12 2 6 2 18 0 25 -3 6 -5 1 -5 -13z"/>
<path d="M7617 6417 c-3 -7 4 -24 14 -38 10 -13 19 -19 19 -13 0 6 -6 17 -14
24 -8 6 -12 18 -9 26 3 8 3 14 0 14 -3 0 -7 -6 -10 -13z"/>
<path d="M6121 6404 c0 -11 3 -14 6 -6 3 7 2 16 -1 19 -3 4 -6 -2 -5 -13z"/>
<path d="M365 6375 c32 -28 65 -49 65 -41 0 3 -21 19 -47 36 -41 27 -43 27
-18 5z"/>
<path d="M6750 6395 c0 -5 5 -17 10 -25 5 -8 10 -10 10 -5 0 6 -5 17 -10 25
-5 8 -10 11 -10 5z"/>
<path d="M2845 6380 c3 -5 8 -10 11 -10 2 0 4 5 4 10 0 6 -5 10 -11 10 -5 0
-7 -4 -4 -10z"/>
<path d="M6113 6345 c0 -22 2 -30 4 -17 2 12 2 30 0 40 -3 9 -5 -1 -4 -23z"/>
<path d="M5722 6330 c0 -19 2 -27 5 -17 2 9 2 25 0 35 -3 9 -5 1 -5 -18z"/>
<path d="M6131 6334 c0 -11 3 -14 6 -6 3 7 2 16 -1 19 -3 4 -6 -2 -5 -13z"/>
<path d="M6771 6345 c1 -19 18 -51 18 -35 0 8 -4 22 -9 30 -5 8 -9 11 -9 5z"/>
<path d="M7662 6330 c0 -14 2 -19 5 -12 2 6 2 18 0 25 -3 6 -5 1 -5 -13z"/>
<path d="M5464 6315 c-3 -8 -4 -20 -2 -27 3 -7 7 -1 10 15 6 29 1 36 -8 12z"/>
<path d="M7530 6310 c6 -11 13 -20 16 -20 2 0 0 9 -6 20 -6 11 -13 20 -16 20
-2 0 0 -9 6 -20z"/>
<path d="M7630 6309 c0 -5 5 -7 10 -4 6 3 10 8 10 11 0 2 -4 4 -10 4 -5 0 -10
-5 -10 -11z"/>
<path d="M6121 6255 c0 -38 2 -45 9 -28 5 12 5 34 0 50 -7 24 -8 21 -9 -22z"/>
<path d="M6790 6285 c0 -5 5 -17 10 -25 5 -8 10 -10 10 -5 0 6 -5 17 -10 25
-5 8 -10 11 -10 5z"/>
<path d="M7640 6280 c0 -5 5 -10 10 -10 6 0 10 5 10 10 0 6 -4 10 -10 10 -5 0
-10 -4 -10 -10z"/>
<path d="M5712 6255 c0 -16 2 -22 5 -12 2 9 2 23 0 30 -3 6 -5 -1 -5 -18z"/>
<path d="M2795 6260 c3 -5 8 -10 11 -10 2 0 4 5 4 10 0 6 -5 10 -11 10 -5 0
-7 -4 -4 -10z"/>
<path d="M555 6240 c3 -5 26 -20 50 -34 25 -14 43 -21 40 -16 -3 5 -26 20 -50
34 -25 14 -43 21 -40 16z"/>
<path d="M7660 6220 c0 -5 5 -10 10 -10 6 0 10 5 10 10 0 6 -4 10 -10 10 -5 0
-10 -4 -10 -10z"/>
<path d="M5691 6159 c-7 -33 -10 -63 -8 -65 2 -3 10 23 16 57 7 33 10 63 8 65
-2 3 -10 -23 -16 -57z"/>
<path d="M6820 6205 c0 -5 5 -17 10 -25 5 -8 10 -10 10 -5 0 6 -5 17 -10 25
-5 8 -10 11 -10 5z"/>
<path d="M7580 6195 c1 -6 7 -21 16 -35 l15 -25 -7 25 c-7 26 -24 52 -24 35z"/>
<path d="M2910 6176 c0 -7 100 -79 104 -75 2 2 -20 21 -50 42 -30 21 -54 36
-54 33z"/>
<path d="M684 6161 c7 -11 46 -35 46 -28 0 3 -12 12 -26 22 -15 9 -23 12 -20
6z"/>
<path d="M6131 6144 c0 -11 3 -14 6 -6 3 7 2 16 -1 19 -3 4 -6 -2 -5 -13z"/>
<path d="M740 6127 c0 -7 91 -59 95 -55 2 2 -18 16 -46 31 -27 16 -49 26 -49
24z"/>
<path d="M6856 6100 c7 -40 24 -76 23 -50 0 8 -7 31 -15 50 l-14 35 6 -35z"/>
<path d="M7732 6100 c-7 -11 -8 -20 -3 -20 9 0 24 30 18 36 -1 2 -8 -6 -15
-16z"/>
<path d="M5395 6079 c-4 -6 -5 -12 -2 -15 2 -3 7 2 10 11 7 17 1 20 -8 4z"/>
<path d="M5666 6050 c-4 -19 -17 -66 -28 -103 -10 -38 -17 -71 -15 -73 7 -7
59 185 54 199 -2 7 -7 -4 -11 -23z"/>
<path d="M6136 5999 c-4 -47 -6 -94 -4 -105 7 -28 20 104 16 151 -3 29 -6 17
-12 -46z"/>
<path d="M876 6049 c8 -14 124 -74 124 -64 0 2 -29 19 -65 38 -35 19 -62 30
-59 26z"/>
<path d="M5375 6039 c-4 -6 -5 -12 -2 -15 2 -3 7 2 10 11 7 17 1 20 -8 4z"/>
<path d="M7791 6024 c0 -11 3 -14 6 -6 3 7 2 16 -1 19 -3 4 -6 -2 -5 -13z"/>
<path d="M6881 6020 c0 -8 4 -24 9 -35 5 -13 9 -14 9 -5 0 8 -4 24 -9 35 -5
13 -9 14 -9 5z"/>
<path d="M5324 5953 c-20 -32 -50 -74 -65 -94 -16 -20 -29 -40 -29 -44 0 -5
15 12 34 36 42 55 108 159 102 159 -3 0 -22 -26 -42 -57z"/>
<path d="M7751 6005 c1 -22 16 -48 22 -38 3 5 0 19 -8 29 -8 10 -14 15 -14 9z"/>
<path d="M1011 5977 c2 -1 13 -9 24 -17 19 -14 19 -14 6 3 -7 9 -18 17 -24 17
-6 0 -8 -1 -6 -3z"/>
<path d="M7671 5965 c1 -19 18 -51 18 -35 0 8 -4 22 -9 30 -5 8 -9 11 -9 5z"/>
<path d="M7797 5952 c-18 -19 -24 -57 -8 -48 5 4 11 0 14 -6 2 -7 8 -9 13 -5
5 5 1 13 -9 18 -15 9 -16 12 -2 25 13 14 20 34 12 34 -2 0 -11 -8 -20 -18z"/>
<path d="M7820 5931 c0 -6 4 -13 10 -16 6 -3 7 1 4 9 -7 18 -14 21 -14 7z"/>
<path d="M6912 5910 c0 -14 2 -19 5 -12 2 6 2 18 0 25 -3 6 -5 1 -5 -13z"/>
<path d="M7701 5874 c0 -11 3 -14 6 -6 3 7 2 16 -1 19 -3 4 -6 -2 -5 -13z"/>
<path d="M7825 5879 c-4 -6 -13 -8 -20 -5 -8 3 -11 -2 -8 -14 3 -12 11 -17 21
-12 14 5 15 3 4 -10 -13 -16 -6 -78 9 -78 5 0 4 12 -2 27 -5 14 -7 34 -3 42 6
15 12 61 7 61 -1 0 -5 -5 -8 -11z"/>
<path d="M5590 5798 c-55 -151 -172 -399 -221 -470 -11 -14 -19 -29 -19 -33 0
-10 -93 -144 -175 -253 -38 -52 -80 -108 -93 -125 -12 -17 -44 -54 -70 -81
-68 -73 -93 -108 -48 -66 71 65 286 344 378 490 57 91 140 248 186 355 46 107
93 237 88 242 -2 2 -14 -25 -26 -59z"/>
<path d="M6123 5805 c0 -22 2 -30 4 -17 2 12 2 30 0 40 -3 9 -5 -1 -4 -23z"/>
<path d="M6931 5830 c0 -8 6 -40 14 -70 7 -30 14 -46 14 -35 0 11 -6 43 -13
70 -8 28 -14 43 -15 35z"/>
<path d="M7835 5820 c-3 -5 -1 -10 4 -10 6 0 11 5 11 10 0 6 -2 10 -4 10 -3 0
-8 -4 -11 -10z"/>
<path d="M1280 5816 c0 -2 9 -6 20 -9 11 -3 18 -1 14 4 -5 9 -34 13 -34 5z"/>
<path d="M4505 5760 c-13 -6 -15 -9 -5 -9 8 0 22 4 30 9 18 12 2 12 -25 0z"/>
<path d="M7864 5756 c-3 -8 0 -24 6 -36 6 -12 9 -28 6 -36 -3 -9 -1 -12 4 -9
13 8 13 82 0 90 -6 3 -13 0 -16 -9z"/>
<path d="M4440 5735 c-14 -8 -20 -14 -15 -14 6 0 21 6 35 14 14 8 21 14 15 14
-5 0 -21 -6 -35 -14z"/>
<path d="M7830 5750 c0 -3 7 -23 16 -45 l15 -40 -6 35 c-3 19 -10 39 -15 44
-6 6 -10 8 -10 6z"/>
<path d="M5124 5698 l-29 -33 33 29 c30 28 37 36 29 36 -2 0 -16 -15 -33 -32z"/>
<path d="M3583 5713 c9 -2 23 -2 30 0 6 3 -1 5 -18 5 -16 0 -22 -2 -12 -5z"/>
<path d="M1838 5703 c7 -3 16 -2 19 1 4 3 -2 6 -13 5 -11 0 -14 -3 -6 -6z"/>
<path d="M3683 5703 c9 -2 25 -2 35 0 9 3 1 5 -18 5 -19 0 -27 -2 -17 -5z"/>
<path d="M4670 5690 c-8 -5 -10 -10 -5 -10 6 0 17 5 25 10 8 5 11 10 5 10 -5
0 -17 -5 -25 -10z"/>
<path d="M6961 5684 c0 -11 3 -14 6 -6 3 7 2 16 -1 19 -3 4 -6 -2 -5 -13z"/>
<path d="M4275 5680 c-13 -5 -14 -9 -5 -9 8 0 24 4 35 9 13 5 14 9 5 9 -8 0
-24 -4 -35 -9z"/>
<path d="M6102 5655 c0 -16 2 -22 5 -12 2 9 2 23 0 30 -3 6 -5 -1 -5 -18z"/>
<path d="M4228 5663 c7 -3 16 -2 19 1 4 3 -2 6 -13 5 -11 0 -14 -3 -6 -6z"/>
<path d="M4188 5653 c7 -3 16 -2 19 1 4 3 -2 6 -13 5 -11 0 -14 -3 -6 -6z"/>
<path d="M6972 5645 c0 -11 4 -33 8 -50 7 -27 8 -27 8 -5 0 14 -4 36 -8 50 -6
20 -8 21 -8 5z"/>
<path d="M7771 5650 c0 -8 4 -24 9 -35 5 -13 9 -14 9 -5 0 8 -4 24 -9 35 -5
13 -9 14 -9 5z"/>
<path d="M7861 5644 c0 -11 3 -14 6 -6 3 7 2 16 -1 19 -3 4 -6 -2 -5 -13z"/>
<path d="M4995 5574 l-40 -36 43 32 c36 27 49 40 40 40 -2 0 -21 -16 -43 -36z"/>
<path d="M4415 5590 c-13 -5 -14 -9 -5 -9 8 0 24 4 35 9 13 5 14 9 5 9 -8 0
-24 -4 -35 -9z"/>
<path d="M6092 5580 c0 -14 2 -19 5 -12 2 6 2 18 0 25 -3 6 -5 1 -5 -13z"/>
<path d="M2528 5553 c7 -3 16 -2 19 1 4 3 -2 6 -13 5 -11 0 -14 -3 -6 -6z"/>
<path d="M6992 5540 c0 -14 2 -19 5 -12 2 6 2 18 0 25 -3 6 -5 1 -5 -13z"/>
<path d="M7801 5534 c0 -11 3 -14 6 -6 3 7 2 16 -1 19 -3 4 -6 -2 -5 -13z"/>
<path d="M7000 5492 c0 -6 9 -83 20 -169 21 -170 31 -571 18 -778 -3 -60 -7
-137 -7 -170 -1 -37 -5 -55 -10 -47 -7 11 -10 10 -15 -3 -9 -23 -8 -27 5 -19
8 5 10 0 6 -17 -3 -13 -9 -59 -13 -101 -4 -46 -11 -75 -16 -72 -6 4 -8 -6 -3
-27 5 -27 4 -31 -5 -19 -10 13 -11 12 -6 -3 8 -25 -12 -118 -29 -137 -20 -22
-19 -36 0 -20 16 14 16 12 0 -35 -6 -18 -9 -16 -21 15 -13 32 -14 32 -8 5 12
-55 13 -80 7 -118 -3 -22 -9 -34 -13 -27 -4 6 -7 -1 -7 -17 0 -28 -11 -78 -36
-168 -14 -47 -15 -48 -20 -20 -4 27 -4 27 -2 -4 1 -31 -27 -106 -37 -96 -2 2
-4 -4 -4 -15 0 -10 4 -16 8 -14 11 7 10 0 -6 -31 -10 -18 -16 -22 -20 -13 -3
7 -4 -1 -2 -18 6 -37 -2 -74 -16 -74 -6 0 -8 7 -5 15 4 8 2 17 -3 20 -16 10
-11 25 6 18 13 -5 15 -3 6 13 -5 10 -8 35 -6 54 3 35 3 35 -8 -5 -6 -22 -15
-43 -20 -46 -6 -4 -6 -14 1 -27 6 -11 11 -29 10 -39 0 -17 -1 -16 -8 1 -7 18
-8 18 -14 2 -9 -23 -9 -28 2 -22 5 3 11 -7 14 -22 6 -33 -2 -45 -10 -14 -9 35
-35 28 -31 -8 2 -19 -3 -34 -12 -40 -19 -11 -8 -22 14 -14 13 5 15 14 10 43
-4 27 -3 32 5 21 17 -25 13 -64 -14 -114 -14 -26 -25 -53 -25 -61 0 -8 -4 -17
-10 -20 -6 -4 -7 1 -4 12 5 15 4 15 -4 3 -6 -8 -9 -17 -7 -21 6 -9 -25 -99
-42 -124 -7 -11 -13 -28 -13 -38 0 -17 -2 -17 -21 4 -11 13 -18 18 -14 12 3
-7 1 -13 -4 -13 -6 0 -11 -4 -11 -10 0 -5 7 -7 15 -4 10 4 15 0 15 -15 0 -12
-4 -21 -9 -21 -5 0 -11 -10 -13 -22 -2 -13 -9 -22 -17 -20 -9 2 -11 -3 -7 -13
6 -17 -22 -85 -36 -85 -4 0 -8 -6 -8 -12 0 -7 -7 -26 -16 -43 -9 -16 -24 -43
-32 -59 -14 -28 -16 -28 -24 -10 -7 16 -8 15 -4 -6 7 -32 -83 -187 -97 -168
-6 9 -7 8 -3 -4 3 -10 1 -20 -4 -23 -6 -4 -10 -14 -10 -23 0 -55 285 461 375
678 15 36 36 85 47 110 118 260 259 781 302 1120 45 346 47 779 6 1090 -19
143 -30 203 -30 162z m-230 -2229 c0 -5 -5 -15 -10 -23 -8 -12 -10 -11 -10 8
0 12 5 22 10 22 6 0 10 -3 10 -7z"/>
<path d="M6071 5474 c0 -11 3 -14 6 -6 3 7 2 16 -1 19 -3 4 -6 -2 -5 -13z"/>
<path d="M4821 5430 c-89 -66 -80 -68 12 -2 42 30 54 42 44 42 -2 0 -27 -18
-56 -40z"/>
<path d="M6056 5404 c-4 -14 -5 -29 -2 -31 3 -3 8 7 12 21 3 15 4 29 1 32 -2
3 -8 -7 -11 -22z"/>
<path d="M7831 5404 c0 -11 3 -14 6 -6 3 7 2 16 -1 19 -3 4 -6 -2 -5 -13z"/>
<path d="M6031 5304 c-6 -21 -9 -40 -6 -42 2 -2 8 13 14 34 6 21 9 40 6 42 -2
2 -8 -13 -14 -34z"/>
<path d="M127 5279 c7 -7 15 -10 18 -7 3 3 -2 9 -12 12 -14 6 -15 5 -6 -5z"/>
<path d="M190 5246 c0 -2 7 -7 16 -10 8 -3 12 -2 9 4 -6 10 -25 14 -25 6z"/>
<path d="M334 5176 c11 -9 24 -16 30 -16 12 0 7 5 -24 19 -24 11 -24 11 -6 -3z"/>
<path d="M5991 5174 c0 -11 3 -14 6 -6 3 7 2 16 -1 19 -3 4 -6 -2 -5 -13z"/>
<path d="M5956 5073 c-6 -14 -5 -15 5 -6 7 7 10 15 7 18 -3 3 -9 -2 -12 -12z"/>
<path d="M590 5060 c8 -5 20 -10 25 -10 6 0 3 5 -5 10 -8 5 -19 10 -25 10 -5
0 -3 -5 5 -10z"/>
<path d="M5893 4925 c-3 -9 -3 -18 -1 -21 3 -3 8 4 11 16 6 23 -1 27 -10 5z"/>
<path d="M7911 4904 c0 -11 3 -14 6 -6 3 7 2 16 -1 19 -3 4 -6 -2 -5 -13z"/>
<path d="M5836 4793 c-6 -14 -5 -15 5 -6 7 7 10 15 7 18 -3 3 -9 -2 -12 -12z"/>
<path d="M7922 4790 c0 -14 2 -19 5 -12 2 6 2 18 0 25 -3 6 -5 1 -5 -13z"/>
<path d="M5816 4753 c-6 -14 -5 -15 5 -6 7 7 10 15 7 18 -3 3 -9 -2 -12 -12z"/>
<path d="M4820 4633 c-52 -52 -84 -88 -70 -79 33 21 176 164 170 169 -3 3 -48
-38 -100 -90z"/>
<path d="M1568 4703 c6 -2 18 -2 25 0 6 3 1 5 -13 5 -14 0 -19 -2 -12 -5z"/>
<path d="M7933 4620 c0 -36 2 -50 4 -32 2 17 2 47 0 65 -2 17 -4 3 -4 -33z"/>
<path d="M5745 4619 c-9 -17 -14 -33 -11 -36 3 -3 10 7 16 22 6 15 13 32 16
36 3 5 3 9 0 9 -3 0 -13 -14 -21 -31z"/>
<path d="M5705 4540 c-9 -16 -13 -30 -11 -30 3 0 12 14 21 30 9 17 13 30 11
30 -3 0 -12 -13 -21 -30z"/>
<path d="M6981 4544 c0 -11 3 -14 6 -6 3 7 2 16 -1 19 -3 4 -6 -2 -5 -13z"/>
<path d="M4635 4459 c-95 -84 -101 -90 -56 -59 35 24 149 129 141 129 -3 1
-41 -31 -85 -70z"/>
<path d="M6961 4494 c0 -11 3 -14 6 -6 3 7 2 16 -1 19 -3 4 -6 -2 -5 -13z"/>
<path d="M5585 4348 c-16 -24 -22 -38 -14 -31 15 12 53 73 46 73 -2 0 -17 -19
-32 -42z"/>
<path d="M6983 4345 c0 -27 2 -38 4 -22 2 15 2 37 0 50 -2 12 -4 0 -4 -28z"/>
<path d="M4499 4347 c-20 -18 -54 -47 -75 -65 -22 -18 -10 -12 25 15 91 69 95
72 90 77 -2 2 -20 -10 -40 -27z"/>
<path d="M6941 4314 c0 -11 3 -14 6 -6 3 7 2 16 -1 19 -3 4 -6 -2 -5 -13z"/>
<path d="M7933 4240 c0 -47 2 -66 4 -42 2 23 2 61 0 85 -2 23 -4 4 -4 -43z"/>
<path d="M5543 4288 c-15 -20 -25 -38 -20 -38 3 0 12 11 21 25 17 26 16 35 -1
13z"/>
<path d="M4310 4200 l-35 -31 37 23 c21 13 38 26 38 31 0 11 -3 9 -40 -23z"/>
<path d="M6925 4200 c-4 -17 -5 -34 -2 -36 3 -3 8 9 12 26 4 17 5 34 2 36 -3
3 -8 -9 -12 -26z"/>
<path d="M6973 4177 c1 -24 4 -32 9 -23 4 8 4 25 -1 38 -8 20 -9 18 -8 -15z"/>
<path d="M5468 4183 c-28 -34 -62 -87 -50 -80 11 7 74 97 68 97 -1 0 -10 -8
-18 -17z"/>
<path d="M4207 4129 c-76 -53 -73 -61 3 -9 52 36 69 50 57 50 -2 0 -29 -18
-60 -41z"/>
<path d="M6942 4150 c0 -14 2 -19 5 -12 2 6 2 18 0 25 -3 6 -5 1 -5 -13z"/>
<path d="M6910 4130 c0 -11 2 -20 4 -20 2 0 6 9 9 20 3 11 1 20 -4 20 -5 0 -9
-9 -9 -20z"/>
<path d="M7923 4075 c0 -33 2 -45 4 -27 2 18 2 45 0 60 -2 15 -4 0 -4 -33z"/>
<path d="M6903 4090 c3 -16 21 -14 25 2 3 10 2 10 -6 -1 -7 -9 -11 -10 -15 -2
-4 7 -5 8 -4 1z"/>
<path d="M4084 4048 c-177 -113 -270 -165 -479 -271 -320 -162 -637 -291 -611
-249 9 15 1 15 -26 1 -15 -8 -19 -8 -14 0 4 6 0 11 -11 11 -15 0 -15 2 -4 9
12 8 10 11 -11 16 -24 6 -64 -5 -354 -101 -74 -25 -403 -109 -563 -144 -114
-25 -348 -66 -491 -85 -58 -8 -136 -20 -175 -25 -38 -6 -144 -17 -234 -25 -90
-8 -166 -17 -169 -20 -3 -3 28 -6 69 -7 71 -1 72 -1 24 -8 l-50 -7 45 -3 c37
-2 39 -4 15 -7 -16 -3 -35 -9 -41 -14 -6 -5 -19 -7 -28 -3 -9 3 -16 1 -16 -5
0 -6 17 -12 38 -12 75 -3 -129 -19 -348 -28 l-225 -10 306 5 c583 8 1042 71
1609 218 205 53 630 192 725 236 22 10 58 25 80 33 147 53 440 191 610 287
115 65 337 199 366 221 38 29 18 22 -37 -13z"/>
<path d="M6946 4054 c5 -25 1 -35 -16 -47 -14 -10 -18 -17 -10 -22 6 -4 8 -16
5 -28 -6 -21 -5 -21 8 -4 19 23 30 94 17 115 -7 13 -8 9 -4 -14z"/>
<path d="M6898 4054 c-5 -4 -8 -19 -8 -33 0 -18 3 -22 11 -14 6 6 9 21 7 33
-1 12 -6 18 -10 14z"/>
<path d="M6922 4035 c0 -16 2 -22 5 -12 2 9 2 23 0 30 -3 6 -5 -1 -5 -18z"/>
<path d="M5351 4027 c-13 -21 -12 -21 5 -5 10 10 16 20 13 22 -3 3 -11 -5 -18
-17z"/>
<path d="M5291 3956 l-24 -31 28 27 c16 15 27 29 24 31 -2 3 -15 -10 -28 -27z"/>
<path d="M6880 3969 c0 -11 5 -17 10 -14 6 3 10 13 10 21 0 8 -4 14 -10 14 -5
0 -10 -9 -10 -21z"/>
<path d="M6866 3904 c-8 -22 -8 -52 2 -57 4 -3 7 5 8 16 0 12 4 30 8 40 5 10
4 17 -2 17 -5 0 -13 -7 -16 -16z"/>
<path d="M5159 3808 c-35 -40 -51 -62 -35 -48 32 28 110 120 103 120 -3 0 -33
-33 -68 -72z"/>
<path d="M6903 3825 c0 -22 2 -30 4 -17 2 12 2 30 0 40 -3 9 -5 -1 -4 -23z"/>
<path d="M6838 3787 c-3 -19 -2 -25 4 -19 6 6 8 18 6 28 -3 14 -5 12 -10 -9z"/>
<path d="M8293 3783 c-24 -25 -17 -31 11 -10 11 8 17 18 15 23 -2 5 -14 -1
-26 -13z"/>
<path d="M6831 3734 c0 -11 3 -14 6 -6 3 7 2 16 -1 19 -3 4 -6 -2 -5 -13z"/>
<path d="M8240 3739 c0 -5 -5 -7 -12 -3 -7 4 -8 3 -4 -5 6 -9 11 -9 22 0 17
14 18 19 4 19 -5 0 -10 -5 -10 -11z"/>
<path d="M6870 3731 c0 -6 5 -13 10 -16 6 -3 10 1 10 9 0 9 -4 16 -10 16 -5 0
-10 -4 -10 -9z"/>
<path d="M5015 3658 l-70 -73 73 70 c67 64 77 75 69 75 -1 0 -34 -33 -72 -72z"/>
<path d="M7881 3714 c0 -11 3 -14 6 -6 3 7 2 16 -1 19 -3 4 -6 -2 -5 -13z"/>
<path d="M8205 3709 c6 -9 3 -11 -8 -6 -10 3 -17 2 -17 -3 0 -6 -5 -10 -10
-10 -6 0 -20 -9 -32 -20 -12 -11 -16 -20 -9 -20 7 0 9 -4 6 -10 -3 -5 -1 -10
5 -10 7 0 10 6 8 12 -6 18 15 36 43 37 62 1 69 9 27 32 -16 9 -19 8 -13 -2z
m15 -19 c-8 -5 -19 -10 -25 -10 -5 0 -3 5 5 10 8 5 20 10 25 10 6 0 3 -5 -5
-10z"/>
<path d="M6814 3683 c3 -6 2 -14 -4 -18 -5 -3 -10 -14 -10 -23 0 -15 2 -15 10
-2 9 13 11 13 21 0 8 -12 9 -9 4 10 -4 14 -12 30 -18 35 -7 7 -8 6 -3 -2z"/>
<path d="M8180 3640 c-8 -5 -12 -12 -9 -15 4 -3 12 1 19 10 14 17 11 19 -10 5z"/>
<path d="M6851 3626 c-8 -10 -9 -16 -1 -21 5 -3 13 1 16 10 9 22 -1 29 -15 11z"/>
<path d="M6783 3583 c-23 -75 -24 -78 -11 -53 7 14 16 28 21 31 5 3 7 18 5 34
-3 25 -4 25 -15 -12z"/>
<path d="M6810 3606 c0 -2 7 -7 16 -10 8 -3 12 -2 9 4 -6 10 -25 14 -25 6z"/>
<path d="M2957 3593 c-15 -2 -25 -9 -22 -14 9 -13 37 -10 59 6 21 16 18 16
-37 8z"/>
<path d="M8089 3573 c-13 -16 -12 -17 4 -4 16 13 21 21 13 21 -2 0 -10 -8 -17
-17z"/>
<path d="M4904 3558 l-19 -23 25 20 c14 11 27 21 29 22 2 2 0 3 -6 3 -5 0 -18
-10 -29 -22z"/>
<path d="M2960 3550 c0 -5 5 -10 10 -10 6 0 10 5 10 10 0 6 -4 10 -10 10 -5 0
-10 -4 -10 -10z"/>
<path d="M6817 3539 c4 -13 8 -18 11 -10 2 7 -1 18 -6 23 -8 8 -9 4 -5 -13z"/>
<path d="M4722 3399 c-85 -71 -151 -129 -147 -129 8 0 186 146 260 214 93 84
41 45 -113 -85z"/>
<path d="M6793 3515 c-3 -9 -3 -18 -1 -21 3 -3 8 4 11 16 6 23 -1 27 -10 5z"/>
<path d="M7842 3480 c0 -14 2 -19 5 -12 2 6 2 18 0 25 -3 6 -5 1 -5 -13z"/>
<path d="M6751 3474 c0 -11 3 -14 6 -6 3 7 2 16 -1 19 -3 4 -6 -2 -5 -13z"/>
<path d="M6730 3431 c0 -5 -3 -16 -6 -25 -3 -9 -2 -16 4 -16 5 0 12 11 14 25
3 14 1 25 -3 25 -5 0 -9 -4 -9 -9z"/>
<path d="M6706 3364 c-3 -8 -1 -24 4 -35 14 -26 21 -24 11 4 -4 12 -6 28 -4
35 7 18 -4 15 -11 -4z"/>
<path d="M7811 3324 c0 -11 3 -14 6 -6 3 7 2 16 -1 19 -3 4 -6 -2 -5 -13z"/>
<path d="M6690 3325 c0 -5 5 -17 10 -25 5 -8 10 -10 10 -5 0 6 -5 17 -10 25
-5 8 -10 11 -10 5z"/>
<path d="M7801 3284 c0 -11 3 -14 6 -6 3 7 2 16 -1 19 -3 4 -6 -2 -5 -13z"/>
<path d="M6662 3240 c0 -14 2 -19 5 -12 2 6 2 18 0 25 -3 6 -5 1 -5 -13z"/>
<path d="M4500 3219 c-36 -32 -26 -28 24 9 16 12 25 22 19 22 -5 0 -24 -14
-43 -31z"/>
<path d="M7786 3219 c-8 -42 0 -50 9 -9 4 17 5 34 2 36 -2 3 -7 -10 -11 -27z"/>
<path d="M6645 3200 c-3 -5 -1 -10 4 -10 6 0 11 5 11 10 0 6 -2 10 -4 10 -3 0
-8 -4 -11 -10z"/>
<path d="M138 3183 c7 -3 16 -2 19 1 4 3 -2 6 -13 5 -11 0 -14 -3 -6 -6z"/>
<path d="M4436 3175 c-11 -8 -15 -15 -9 -15 6 0 16 7 23 15 16 19 11 19 -14 0z"/>
<path d="M6624 3154 c-4 -16 -13 -41 -21 -56 -7 -16 -10 -28 -5 -28 10 0 46
99 39 107 -3 3 -9 -8 -13 -23z"/>
<path d="M398 3163 c7 -3 16 -2 19 1 4 3 -2 6 -13 5 -11 0 -14 -3 -6 -6z"/>
<path d="M6640 3130 c0 -5 5 -10 11 -10 5 0 7 5 4 10 -3 6 -8 10 -11 10 -2 0
-4 -4 -4 -10z"/>
<path d="M4360 3120 c-9 -6 -10 -10 -3 -10 6 0 15 5 18 10 8 12 4 12 -15 0z"/>
<path d="M893 3103 c9 -2 23 -2 30 0 6 3 -1 5 -18 5 -16 0 -22 -2 -12 -5z"/>
<path d="M45 3090 c51 -8 172 -13 164 -6 -2 2 -51 6 -109 9 -71 3 -89 2 -55
-3z"/>
<path d="M6651 3084 c0 -11 3 -14 6 -6 3 7 2 16 -1 19 -3 4 -6 -2 -5 -13z"/>
<path d="M4290 3069 c-17 -13 -18 -17 -5 -10 33 17 51 31 40 31 -5 0 -21 -10
-35 -21z"/>
<path d="M263 3073 c26 -2 68 -2 95 0 26 2 4 3 -48 3 -52 0 -74 -1 -47 -3z"/>
<path d="M6621 3043 c1 -4 0 -12 -1 -18 -1 -5 -1 -23 -1 -40 1 -16 -7 -43 -18
-59 -18 -26 -20 -27 -30 -10 -6 11 -11 14 -11 8 0 -6 6 -17 14 -23 11 -9 18
-5 35 22 23 37 35 113 20 123 -5 3 -9 2 -8 -3z"/>
<path d="M6561 3014 c-17 -37 -8 -39 13 -4 9 17 13 30 8 30 -5 0 -14 -12 -21
-26z"/>
<path d="M4174 2994 c-18 -14 -18 -15 4 -4 12 6 22 13 22 15 0 8 -5 6 -26 -11z"/>
<path d="M6591 2994 c0 -11 3 -14 6 -6 3 7 2 16 -1 19 -3 4 -6 -2 -5 -13z"/>
<path d="M6587 2956 c-10 -8 -14 -16 -10 -19 5 -3 14 3 21 14 14 22 13 23 -11
5z"/>
<path d="M6501 2874 c0 -11 3 -14 6 -6 3 7 2 16 -1 19 -3 4 -6 -2 -5 -13z"/>
<path d="M6472 2831 c-6 -17 -9 -31 -6 -31 7 0 25 52 20 57 -2 2 -8 -10 -14
-26z"/>
<path d="M6506 2835 c-3 -8 -1 -15 4 -15 6 0 10 7 10 15 0 8 -2 15 -4 15 -2 0
-6 -7 -10 -15z"/>
<path d="M3730 2730 c-19 -11 -31 -19 -27 -20 11 0 67 29 67 35 0 7 -1 7 -40
-15z"/>
<path d="M6426 2733 c-6 -14 -5 -15 5 -6 7 7 10 15 7 18 -3 3 -9 -2 -12 -12z"/>
<path d="M6482 2715 c0 -16 2 -22 5 -12 2 9 2 23 0 30 -3 6 -5 -1 -5 -18z"/>
<path d="M6451 2714 c0 -11 3 -14 6 -6 3 7 2 16 -1 19 -3 4 -6 -2 -5 -13z"/>
<path d="M6376 2627 c3 -10 9 -15 12 -12 3 3 0 11 -7 18 -10 9 -11 8 -5 -6z"/>
<path d="M6346 2467 c3 -10 9 -15 12 -12 3 3 0 11 -7 18 -10 9 -11 8 -5 -6z"/>
<path d="M3365 2460 c3 -5 11 -10 16 -10 6 0 7 5 4 10 -3 6 -11 10 -16 10 -6
0 -7 -4 -4 -10z"/>
<path d="M6303 2436 c1 -11 9 -21 17 -23 10 -3 11 -2 4 4 -6 4 -14 15 -17 23
-5 11 -6 9 -4 -4z"/>
<path d="M6220 2389 c-7 -11 -10 -23 -7 -25 2 -2 9 7 15 21 14 30 7 33 -8 4z"/>
<path d="M6190 2341 c0 -6 4 -13 10 -16 6 -3 7 1 4 9 -7 18 -14 21 -14 7z"/>
<path d="M6277 2290 c-8 -11 -17 -17 -22 -12 -4 4 -6 0 -2 -10 6 -18 -25 -53
-37 -41 -4 4 -4 0 -1 -8 3 -9 -9 -33 -30 -60 -19 -24 -35 -48 -35 -54 1 -15
95 112 144 193 12 20 -2 14 -17 -8z"/>
<path d="M6106 2213 c-6 -14 -5 -15 5 -6 7 7 10 15 7 18 -3 3 -9 -2 -12 -12z"/>
<path d="M6100 2038 c-19 -28 -43 -60 -52 -71 -10 -11 -18 -23 -18 -26 1 -8
54 55 87 102 14 20 24 39 22 42 -3 2 -20 -19 -39 -47z"/>
<path d="M5987 1893 c-14 -21 -45 -59 -69 -85 -24 -26 -51 -62 -61 -80 l-18
-33 21 25 c11 14 49 59 82 100 34 41 68 83 76 93 9 9 11 17 5 17 -6 0 -22 -17
-36 -37z"/>
<path d="M7276 1893 c-6 -14 -5 -15 5 -6 7 7 10 15 7 18 -3 3 -9 -2 -12 -12z"/>
<path d="M5826 1863 c-6 -14 -5 -15 5 -6 7 7 10 15 7 18 -3 3 -9 -2 -12 -12z"/>
<path d="M7250 1850 c-6 -11 -8 -20 -6 -20 3 0 10 9 16 20 6 11 8 20 6 20 -3
0 -10 -9 -16 -20z"/>
<path d="M18 1853 c12 -2 30 -2 40 0 9 3 -1 5 -23 4 -22 0 -30 -2 -17 -4z"/>
<path d="M98 1853 c12 -2 32 -2 45 0 12 2 2 4 -23 4 -25 0 -35 -2 -22 -4z"/>
<path d="M213 1853 c20 -2 54 -2 75 0 20 2 3 4 -38 4 -41 0 -58 -2 -37 -4z"/>
<path d="M710 1843 c-41 -2 -78 -7 -82 -11 -9 -9 177 -3 222 8 33 7 32 8 -15
7 -27 -1 -84 -3 -125 -4z"/>
<path d="M240 1821 c-135 -3 -236 -9 -225 -13 24 -8 583 -3 592 6 4 3 -10 6
-29 6 -20 0 -48 1 -64 3 -16 2 -139 1 -274 -2z"/>
<path d="M80 1790 c-73 -5 -63 -6 65 -6 83 0 161 -3 175 -7 17 -6 20 -5 10 2
-22 13 -151 19 -250 11z"/>
<path d="M365 1791 c-5 -9 134 -4 144 5 2 2 -28 4 -67 4 -39 0 -73 -4 -77 -9z"/>
<path d="M538 1773 c7 -3 16 -2 19 1 4 3 -2 6 -13 5 -11 0 -14 -3 -6 -6z"/>
<path d="M651 1746 c2 -2 27 -6 54 -9 32 -4 43 -3 30 3 -19 8 -93 14 -84 6z"/>
<path d="M5775 1640 c-21 -22 -35 -43 -30 -47 4 -5 10 -2 13 6 2 7 13 21 24
30 18 15 43 51 35 51 -1 0 -20 -18 -42 -40z"/>
<path d="M5494 1344 c-161 -166 -174 -188 -22 -37 121 119 183 187 166 182 -2
0 -66 -66 -144 -145z"/>
<path d="M7056 1254 c-11 -28 -6 -38 9 -18 8 10 15 22 15 27 0 13 -18 7 -24
-9z"/>
<path d="M6863 1238 c-46 -60 -66 -91 -56 -84 13 7 77 96 70 96 -3 0 -9 -6
-14 -12z"/>
<path d="M5294 1148 l-29 -33 33 29 c17 17 32 31 32 33 0 8 -8 1 -36 -29z"/>
<path d="M6774 1118 l-19 -23 23 19 c12 11 22 21 22 23 0 8 -8 2 -26 -19z"/>
<path d="M6928 1125 c-3 -4 -2 -21 3 -38 9 -33 -3 -51 -29 -42 -7 3 -10 0 -7
-6 4 -5 16 -7 28 -3 21 6 21 6 4 -13 -9 -11 -14 -23 -10 -26 9 -10 35 31 28
43 -3 6 1 10 9 10 9 0 16 5 16 12 0 6 -3 8 -7 4 -5 -4 -13 9 -18 29 -6 20 -13
33 -17 30z"/>
<path d="M5226 1094 c-15 -14 -26 -27 -24 -29 2 -3 17 9 33 25 35 36 30 39 -9
4z"/>
<path d="M6739 1073 c-13 -16 -12 -17 4 -4 16 13 21 21 13 21 -2 0 -10 -8 -17
-17z"/>
<path d="M5141 1020 c-19 -16 -32 -32 -30 -35 3 -2 21 11 39 30 41 42 37 45
-9 5z"/>
<path d="M6699 1023 l-24 -28 28 24 c15 14 27 26 27 28 0 8 -8 1 -31 -24z"/>
<path d="M6800 991 c-13 -20 -17 -32 -9 -36 5 -4 8 -13 6 -20 -4 -10 0 -10 18
-1 14 6 19 12 12 14 -40 11 -40 12 -25 30 19 22 31 42 24 42 -2 0 -14 -13 -26
-29z"/>
<path d="M6878 1013 c7 -3 16 -2 19 1 4 3 -2 6 -13 5 -11 0 -14 -3 -6 -6z"/>
<path d="M6826 985 c-9 -26 -7 -32 5 -12 6 10 9 21 6 23 -2 3 -7 -2 -11 -11z"/>
<path d="M6654 968 l-19 -23 23 19 c12 11 22 21 22 23 0 8 -8 2 -26 -19z"/>
<path d="M6865 966 c5 -32 11 -41 18 -29 3 5 -1 19 -9 33 l-14 25 5 -29z"/>
<path d="M5049 939 l-24 -20 28 17 c15 9 27 18 27 20 0 8 -8 4 -31 -17z"/>
<path d="M6609 913 c-13 -16 -12 -17 4 -4 16 13 21 21 13 21 -2 0 -10 -8 -17
-17z"/>
<path d="M5005 910 c-3 -5 -1 -10 4 -10 6 0 11 5 11 10 0 6 -2 10 -4 10 -3 0
-8 -4 -11 -10z"/>
<path d="M6722 890 c-7 -11 -9 -20 -4 -20 10 0 32 22 32 32 0 15 -15 8 -28
-12z"/>
<path d="M6831 894 c0 -11 3 -14 6 -6 3 7 2 16 -1 19 -3 4 -6 -2 -5 -13z"/>
<path d="M6801 880 c14 -31 19 -36 19 -24 0 6 -7 19 -16 30 -14 18 -14 18 -3
-6z"/>
<path d="M4969 873 c-13 -15 -12 -15 9 -4 23 12 28 21 13 21 -5 0 -15 -7 -22
-17z"/>
<path d="M6535 823 c-46 -54 -50 -60 -16 -28 40 37 87 95 78 95 -2 0 -30 -30
-62 -67z"/>
<path d="M6686 851 c-3 -4 1 -17 10 -27 14 -18 15 -18 5 2 -6 12 -7 24 -4 28
3 3 4 6 0 6 -3 0 -8 -4 -11 -9z"/>
<path d="M4840 774 c-47 -34 -51 -39 -14 -21 17 9 36 23 43 31 17 21 13 19
-29 -10z"/>
<path d="M6625 780 c-3 -5 -1 -10 4 -10 6 0 11 5 11 10 0 6 -2 10 -4 10 -3 0
-8 -4 -11 -10z"/>
<path d="M4740 700 c-14 -11 -21 -20 -17 -20 5 0 20 9 34 20 14 11 22 20 17
20 -5 0 -20 -9 -34 -20z"/>
<path d="M6409 683 c-13 -16 -12 -17 4 -4 16 13 21 21 13 21 -2 0 -10 -8 -17
-17z"/>
<path d="M4630 620 c-36 -27 -78 -57 -95 -66 -16 -9 -46 -29 -65 -44 -19 -15
-51 -35 -70 -45 -31 -16 -33 -16 -21 -2 16 20 9 21 -22 6 -21 -10 -21 -10 -3
5 18 15 18 16 2 16 -9 0 -14 4 -11 10 4 6 15 4 29 -5 21 -14 25 -14 47 6 l24
21 -25 -15 c-21 -12 -27 -12 -38 -1 -18 20 -15 26 10 18 19 -6 21 -4 12 7 -6
8 -14 22 -17 32 -6 15 -3 17 16 12 16 -5 18 -4 8 3 -11 8 -8 13 16 25 16 9 36
23 44 33 14 17 -67 -32 -151 -92 -40 -28 -293 -181 -407 -245 -201 -114 -297
-167 -418 -228 l-140 -71 154 0 154 0 86 47 c195 106 609 363 751 466 14 10
59 43 100 73 41 29 84 60 95 68 11 9 16 15 10 15 -5 0 -39 -23 -75 -49z m-261
-76 c-7 -8 -22 -20 -33 -25 -19 -9 -19 -9 2 10 12 10 22 24 22 31 0 6 5 8 10
5 8 -5 7 -11 -1 -21z"/>
<path d="M6358 627 c-31 -30 -62 -67 -57 -67 3 0 24 20 48 45 44 46 51 63 9
22z"/>
<path d="M6205 468 l-70 -73 73 70 c39 38 72 71 72 72 0 8 -11 -2 -75 -69z"/>
<path d="M6060 332 c-30 -31 -41 -45 -25 -32 46 38 88 80 84 84 -2 2 -29 -22
-59 -52z"/>
<path d="M5875 164 l-60 -56 63 52 c54 45 69 61 60 60 -2 0 -30 -26 -63 -56z"/>
<path d="M5750 59 c-39 -36 -43 -42 -15 -21 37 28 83 72 74 72 -2 0 -29 -23
-59 -51z"/>
</g>
</svg>
